M48
; DRILL file {KiCad (5.1.8-0-10_14)} date Monday, September 27, 2021 at 01:11:39 AM
; FORMAT={-:-/ absolute / inch / decimal}
; #@! TF.CreationDate,2021-09-27T01:11:39-07:00
; #@! TF.GenerationSoftware,Kicad,Pcbnew,(5.1.8-0-10_14)
; #@! TF.FileFunction,Plated,1,2,PTH
FMAT,2
INCH
T1C0.0157
T2C0.0197
T3C0.0276
T4C0.0315
T5C0.0350
T6C0.0394
T7C0.0402
T8C0.0410
T9C0.0433
T10C0.0630
T11C0.1181
T12C0.1260
T13C0.1280
%
G90
G05
T1
X2.8108Y-4.7445
X2.846Y-4.7621
X2.9055Y-4.7345
X3.069Y-4.761
X3.4513Y-3.1004
X3.469Y-4.951
X3.571Y-4.891
X3.597Y-4.765
X3.622Y-3.3661
X3.6225Y-4.8945
X3.65Y-4.075
X3.6713Y-4.3996
X3.6927Y-4.765
X3.7Y-3.375
X3.7Y-3.5
X3.7Y-3.55
X3.7Y-3.9
X3.735Y-4.7246
X3.7953Y-4.762
X3.8Y-4.61
X3.831Y-4.707
X3.8964Y-4.0116
X3.939Y-3.9744
X3.9635Y-4.2254
X3.9937Y-3.5616
X4.0161Y-4.3376
X4.0741Y-4.3376
X4.126Y-4.2431
X4.1565Y-3.5797
X4.1646Y-4.3507
X4.1735Y-3.6217
X4.1807Y-4.4
X4.2028Y-3.6713
X4.252Y-3.7402
X4.325Y-5.0
X4.3712Y-3.2136
X4.3716Y-4.2898
X4.375Y-5.0
X4.4097Y-4.3507
X4.4556Y-3.249
X4.4587Y-4.2618
X4.4783Y-4.626
X4.5177Y-3.249
X4.5276Y-4.6152
X4.5768Y-3.2776
X4.6Y-5.0
X4.6063Y-4.8327
X4.6556Y-4.9918
X4.7047Y-4.372
X4.7167Y-5.0026
X4.7286Y-3.4397
X4.775Y-4.975
X4.9902Y-3.4547
X5.0787Y-4.1339
X5.1578Y-3.2607
X5.285Y-3.1702
X5.2854Y-3.3366
X5.3543Y-3.6614
X5.4659Y-3.6879
X5.5118Y-3.563
X5.5304Y-4.4982
X5.5375Y-3.5125
X5.5525Y-4.2025
X5.6311Y-3.233
X5.6859Y-4.3308
X5.7372Y-2.5698
X5.7372Y-2.7844
X5.7447Y-4.4624
X5.8169Y-4.7244
X5.8489Y-3.5654
X5.9682Y-3.8695
X6.0326Y-3.6874
X6.0387Y-3.9863
X6.0678Y-4.1718
X6.1093Y-4.0329
X6.2276Y-4.1053
X6.365Y-3.775
X6.3789Y-4.5248
X6.4075Y-4.685
X6.4351Y-4.3584
X6.514Y-3.206
X6.565Y-3.4449
X6.6043Y-4.6161
X6.6673Y-4.1624
X6.6832Y-4.4784
X6.7323Y-5.4232
X6.8126Y-4.3064
X6.8799Y-4.3012
X6.8799Y-4.7933
X6.8922Y-3.9493
X7.0098Y-5.1772
X7.0374Y-4.3996
X7.0577Y-3.3458
X7.0669Y-3.8287
X7.0727Y-4.5808
X7.0761Y-4.2419
X7.0866Y-5.4429
X7.0984Y-4.9114
X7.1032Y-5.4945
X7.1161Y-4.872
X7.1358Y-3.435
X7.1358Y-4.3012
X7.1813Y-4.133
X7.1921Y-3.367
X7.3425Y-3.3465
X7.4418Y-5.178
X7.5537Y-4.5616
X7.5767Y-4.4312
X7.6605Y-3.7105
X7.7Y-4.18
X7.7579Y-4.3406
X7.7854Y-3.9665
X7.8445Y-5.0492
X7.8555Y-4.124
X7.8937Y-4.2421
X7.9322Y-5.178
X7.984Y-4.1828
X7.9943Y-4.7065
X8.0314Y-4.3111
X8.0906Y-5.2854
X8.1116Y-4.124
X8.2026Y-3.4518
X8.2198Y-4.204
X8.2355Y-4.622
X8.2677Y-4.685
X8.3271Y-4.6164
X8.4539Y-5.178
X8.4683Y-4.0145
X8.5433Y-3.3878
X8.6516Y-3.3957
X8.937Y-5.1772
X8.9961Y-3.4449
X9.0053Y-3.9576
T2
X8.75Y-2.7165
X8.7759Y-2.6539
X8.7759Y-2.7792
X8.8386Y-2.628
X8.8386Y-2.8051
X8.9012Y-2.6539
X8.9012Y-2.7792
X8.9272Y-2.7165
X6.8012Y-5.5906
X6.8271Y-5.5279
X6.8271Y-5.6532
X6.8898Y-5.502
X6.8898Y-5.6791
X6.9524Y-5.5279
X6.9524Y-5.6532
X6.9783Y-5.5906
X5.128Y-5.5709
X5.1539Y-5.5082
X5.1539Y-5.6335
X5.2165Y-5.4823
X5.2165Y-5.6594
X5.2792Y-5.5082
X5.2792Y-5.6335
X5.3051Y-5.5709
X2.3917Y-2.7264
X2.4177Y-2.6637
X2.4177Y-2.789
X2.4803Y-2.6378
X2.4803Y-2.815
X2.543Y-2.6637
X2.543Y-2.789
X2.5689Y-2.7264
T3
X6.0728Y-4.9016
X6.0728Y-4.9606
X6.0728Y-5.0197
T4
X3.39Y-5.11
X3.39Y-5.41
X3.49Y-5.11
X3.49Y-5.41
X3.59Y-5.11
X3.59Y-5.41
X3.69Y-5.11
X3.69Y-5.41
X3.79Y-5.11
X3.79Y-5.41
X3.89Y-5.11
X3.89Y-5.41
X3.99Y-5.11
X3.99Y-5.41
X4.09Y-5.11
X4.09Y-5.41
X2.55Y-5.11
X2.55Y-5.41
X2.65Y-5.11
X2.65Y-5.41
X2.75Y-5.11
X2.75Y-5.41
X2.85Y-5.11
X2.85Y-5.41
X2.95Y-5.11
X2.95Y-5.41
X3.05Y-5.11
X3.05Y-5.41
X3.15Y-5.11
X3.15Y-5.41
X3.25Y-5.11
X3.25Y-5.41
X7.0127Y-4.156
X7.0127Y-4.256
X7.4946Y-4.002
X7.4946Y-4.0807
X7.4946Y-4.1595
X7.5734Y-4.002
X7.5734Y-4.0807
X7.5734Y-4.1595
X6.47Y-3.475
X6.47Y-3.5734
T5
X6.059Y-3.1652
X6.109Y-3.0652
X6.159Y-3.1652
X6.209Y-3.0652
X6.259Y-3.1652
X6.309Y-3.0652
X6.359Y-3.1652
X6.409Y-3.0652
T6
X5.7Y-3.36
X5.8Y-3.36
X6.0Y-3.36
X6.1Y-3.36
X6.2Y-3.36
X3.79Y-5.599
X3.89Y-5.599
X3.99Y-5.599
X4.09Y-5.599
X4.19Y-5.599
X6.3224Y-4.9098
X6.3224Y-5.0098
X6.4224Y-4.9098
X6.4224Y-5.0098
X6.5224Y-4.9098
X6.5224Y-5.0098
X6.6224Y-4.9098
X6.6224Y-5.0098
X6.7224Y-4.9098
X6.7224Y-5.0098
X5.04Y-3.41
X5.04Y-3.51
X5.14Y-3.41
X5.14Y-3.51
X5.24Y-3.41
X5.24Y-3.51
X5.34Y-3.41
X5.34Y-3.51
X5.44Y-3.41
X5.44Y-3.51
X3.16Y-5.6
X3.26Y-5.6
X3.36Y-5.6
X3.46Y-5.6
X3.56Y-5.6
X3.0498Y-2.814
X3.1043Y-2.7022
X3.1588Y-2.814
X3.2134Y-2.7022
X3.2679Y-2.814
X3.3224Y-2.7022
X3.3769Y-2.814
X3.4315Y-2.7022
X3.486Y-2.814
X2.55Y-5.6
X2.65Y-5.6
X2.75Y-5.6
X2.85Y-5.6
X2.95Y-5.6
X7.0913Y-3.5228
X7.0913Y-3.6228
X7.1913Y-3.5228
X7.1913Y-3.6228
X7.2913Y-3.5228
X7.2913Y-3.6228
X7.3913Y-3.5228
X7.3913Y-3.6228
X7.4913Y-3.5228
X7.4913Y-3.6228
X7.5913Y-3.5228
X7.5913Y-3.6228
X7.6913Y-3.5228
X7.6913Y-3.6228
X7.7913Y-3.5228
X7.7913Y-3.6228
X7.8913Y-3.5228
X7.8913Y-3.6228
X7.9913Y-3.5228
X7.9913Y-3.6228
X8.0913Y-3.5228
X8.0913Y-3.6228
X8.1913Y-3.5228
X8.1913Y-3.6228
X8.2913Y-3.5228
X8.2913Y-3.6228
X8.3913Y-3.5228
X8.3913Y-3.6228
X8.4913Y-3.5228
X8.4913Y-3.6228
X8.5913Y-3.5228
X8.5913Y-3.6228
X8.6913Y-3.5228
X8.6913Y-3.6228
X8.7913Y-3.5228
X8.7913Y-3.6228
X8.8913Y-3.5228
X8.8913Y-3.6228
X8.9913Y-3.5228
X8.9913Y-3.6228
X5.5709Y-4.8984
X5.5709Y-4.9984
X5.5709Y-5.0984
X4.13Y-3.4
X4.13Y-3.5
X4.23Y-3.4
X4.23Y-3.5
X4.33Y-3.4
X4.33Y-3.5
X4.43Y-3.4
X4.43Y-3.5
X4.53Y-3.4
X4.53Y-3.5
X4.3478Y-2.806
X4.4023Y-2.6942
X4.4568Y-2.806
X4.5114Y-2.6942
X4.5659Y-2.806
X4.6204Y-2.6942
X4.6749Y-2.806
X4.7295Y-2.6942
X4.784Y-2.806
X5.8071Y-4.8984
X5.8071Y-4.9984
X5.8071Y-5.0984
T7
X7.244Y-4.828
X7.244Y-5.528
X7.2531Y-5.078
X7.2531Y-5.178
X7.2531Y-5.278
X7.344Y-4.828
X7.344Y-5.528
X7.444Y-4.828
X7.444Y-5.528
X7.544Y-4.828
X7.544Y-5.528
X7.644Y-4.828
X7.644Y-5.528
X7.744Y-4.828
X7.744Y-5.528
X7.844Y-4.828
X7.844Y-5.528
X7.944Y-4.828
X7.944Y-5.528
X8.044Y-4.828
X8.044Y-5.528
X8.144Y-4.828
X8.144Y-5.528
X8.244Y-4.828
X8.244Y-5.528
X8.344Y-4.828
X8.344Y-5.528
X8.444Y-4.828
X8.444Y-5.528
X8.544Y-4.828
X8.544Y-5.528
X8.644Y-4.828
X8.644Y-5.528
X8.744Y-4.828
X8.744Y-5.528
X8.844Y-4.828
X8.844Y-5.528
X8.944Y-4.828
X8.944Y-5.528
X9.044Y-4.828
X9.044Y-5.528
X9.144Y-4.828
X9.144Y-5.528
T8
X5.985Y-2.6821
X6.085Y-2.6152
X6.383Y-2.6821
X6.483Y-2.6144
T9
X6.984Y-3.906
X6.984Y-4.506
X7.084Y-3.906
X7.084Y-4.006
X7.084Y-4.506
X7.184Y-3.906
X7.184Y-4.506
X7.232Y-4.3859
X7.284Y-3.906
X7.284Y-4.506
X7.332Y-4.3859
X7.384Y-3.906
X7.384Y-4.506
X7.432Y-4.3859
X7.484Y-3.906
X7.484Y-4.506
X7.532Y-4.3859
X7.584Y-3.906
X7.584Y-4.506
X7.632Y-4.3859
X7.684Y-3.906
X7.684Y-4.506
X7.784Y-3.906
X7.784Y-4.506
X7.884Y-3.906
X7.884Y-4.506
X7.984Y-3.906
X7.984Y-4.506
X8.084Y-3.906
X8.084Y-4.506
X8.184Y-3.906
X8.184Y-4.506
X8.284Y-3.906
X8.284Y-4.506
X8.384Y-3.906
X8.384Y-4.506
X8.484Y-3.906
X8.484Y-4.506
X8.584Y-3.906
X8.584Y-4.506
X8.684Y-3.906
X8.684Y-4.506
X8.784Y-3.906
X8.784Y-4.006
X8.784Y-4.106
X8.784Y-4.206
X8.784Y-4.306
X8.784Y-4.406
X8.784Y-4.506
X8.884Y-3.906
X8.884Y-4.506
X8.984Y-3.906
X8.984Y-4.506
X9.084Y-3.906
X9.084Y-4.506
X9.184Y-3.906
X9.184Y-4.506
X9.284Y-3.906
X9.284Y-4.506
T10
X5.924Y-2.9345
X6.544Y-2.9345
T11
X8.8386Y-2.7165
X6.8898Y-5.5906
X5.2165Y-5.5709
X2.4803Y-2.7264
T12
X2.7758Y-2.8022
X3.76Y-2.8022
X4.0738Y-2.7942
X5.058Y-2.7942
T13
X6.009Y-2.8144
X6.459Y-2.8144
T0
M30
