%TF.GenerationSoftware,KiCad,Pcbnew,(5.1.8-0-10_14)*%
%TF.CreationDate,2021-09-27T01:00:10-07:00*%
%TF.ProjectId,baku,62616b75-2e6b-4696-9361-645f70636258,rev?*%
%TF.SameCoordinates,Original*%
%TF.FileFunction,Legend,Top*%
%TF.FilePolarity,Positive*%
%FSLAX46Y46*%
G04 Gerber Fmt 4.6, Leading zero omitted, Abs format (unit mm)*
G04 Created by KiCad (PCBNEW (5.1.8-0-10_14)) date 2021-09-27 01:00:10*
%MOMM*%
%LPD*%
G01*
G04 APERTURE LIST*
%ADD10C,0.127000*%
%ADD11C,0.120000*%
%ADD12C,0.100000*%
%ADD13C,0.150000*%
%ADD14C,0.152400*%
%ADD15C,0.200000*%
%ADD16C,0.015000*%
G04 APERTURE END LIST*
D10*
%TO.C,A2*%
X233750000Y-94250000D02*
G75*
G03*
X236750000Y-91250000I0J3000000D01*
G01*
X171750000Y-91250000D02*
G75*
G03*
X174750000Y-94250000I3000000J0D01*
G01*
X174750000Y-64250000D02*
G75*
G03*
X171750000Y-67250000I0J-3000000D01*
G01*
X236750000Y-67250000D02*
G75*
G03*
X233750000Y-64250000I-3000000J0D01*
G01*
X233750000Y-64250000D02*
X174750000Y-64250000D01*
X171750000Y-67250000D02*
X171750000Y-91250000D01*
X174750000Y-94250000D02*
X233750000Y-94250000D01*
X236750000Y-91250000D02*
X236750000Y-67250000D01*
X199850000Y-64250000D02*
X191500000Y-64250000D01*
X187250000Y-64250000D02*
X178900000Y-64250000D01*
D11*
%TO.C,R1*%
X86522936Y-78015000D02*
X86977064Y-78015000D01*
X86522936Y-79485000D02*
X86977064Y-79485000D01*
%TO.C,J4*%
X142830000Y-123090000D02*
X140170000Y-123090000D01*
X142830000Y-128230000D02*
X142830000Y-123090000D01*
X140170000Y-128230000D02*
X140170000Y-123090000D01*
X142830000Y-128230000D02*
X140170000Y-128230000D01*
X142830000Y-129500000D02*
X142830000Y-130830000D01*
X142830000Y-130830000D02*
X141500000Y-130830000D01*
%TO.C,J3*%
X148830000Y-123090000D02*
X146170000Y-123090000D01*
X148830000Y-128230000D02*
X148830000Y-123090000D01*
X146170000Y-128230000D02*
X146170000Y-123090000D01*
X148830000Y-128230000D02*
X146170000Y-128230000D01*
X148830000Y-129500000D02*
X148830000Y-130830000D01*
X148830000Y-130830000D02*
X147500000Y-130830000D01*
D12*
%TO.C,U5*%
G36*
X209800600Y-106525400D02*
G01*
X209546600Y-106779400D01*
X209292600Y-106398400D01*
X209546600Y-106144400D01*
X209800600Y-106525400D01*
G37*
X209800600Y-106525400D02*
X209546600Y-106779400D01*
X209292600Y-106398400D01*
X209546600Y-106144400D01*
X209800600Y-106525400D01*
G36*
X209419600Y-106906400D02*
G01*
X209165600Y-107160400D01*
X208911600Y-106779400D01*
X209165600Y-106525400D01*
X209419600Y-106906400D01*
G37*
X209419600Y-106906400D02*
X209165600Y-107160400D01*
X208911600Y-106779400D01*
X209165600Y-106525400D01*
X209419600Y-106906400D01*
G36*
X207514600Y-106144400D02*
G01*
X207260600Y-106398400D01*
X207006600Y-106017400D01*
X207260600Y-105763400D01*
X207514600Y-106144400D01*
G37*
X207514600Y-106144400D02*
X207260600Y-106398400D01*
X207006600Y-106017400D01*
X207260600Y-105763400D01*
X207514600Y-106144400D01*
G36*
X207895600Y-106652400D02*
G01*
X207641600Y-106906400D01*
X207387600Y-106525400D01*
X207641600Y-106271400D01*
X207895600Y-106652400D01*
G37*
X207895600Y-106652400D02*
X207641600Y-106906400D01*
X207387600Y-106525400D01*
X207641600Y-106271400D01*
X207895600Y-106652400D01*
G36*
X208276600Y-107160400D02*
G01*
X208022600Y-107414400D01*
X207768600Y-107033400D01*
X208022600Y-106779400D01*
X208276600Y-107160400D01*
G37*
X208276600Y-107160400D02*
X208022600Y-107414400D01*
X207768600Y-107033400D01*
X208022600Y-106779400D01*
X208276600Y-107160400D01*
G36*
X208276600Y-106271400D02*
G01*
X208022600Y-106525400D01*
X207768600Y-106144400D01*
X208022600Y-105890400D01*
X208276600Y-106271400D01*
G37*
X208276600Y-106271400D02*
X208022600Y-106525400D01*
X207768600Y-106144400D01*
X208022600Y-105890400D01*
X208276600Y-106271400D01*
G36*
X208657600Y-106779400D02*
G01*
X208403600Y-107033400D01*
X208149600Y-106652400D01*
X208403600Y-106398400D01*
X208657600Y-106779400D01*
G37*
X208657600Y-106779400D02*
X208403600Y-107033400D01*
X208149600Y-106652400D01*
X208403600Y-106398400D01*
X208657600Y-106779400D01*
G36*
X209038600Y-107287400D02*
G01*
X208784600Y-107541400D01*
X208530600Y-107160400D01*
X208784600Y-106906400D01*
X209038600Y-107287400D01*
G37*
X209038600Y-107287400D02*
X208784600Y-107541400D01*
X208530600Y-107160400D01*
X208784600Y-106906400D01*
X209038600Y-107287400D01*
D13*
X176123600Y-115722400D02*
X176123600Y-97942400D01*
X237083600Y-115722400D02*
X176123600Y-115722400D01*
X237083600Y-97942400D02*
X237083600Y-115722400D01*
X176123600Y-97942400D02*
X237083600Y-97942400D01*
X181203600Y-110642400D02*
X176123600Y-110642400D01*
X181203600Y-103022400D02*
X176123600Y-103022400D01*
X181203600Y-110642400D02*
X181203600Y-103022400D01*
X174853600Y-103022400D02*
X176123600Y-103022400D01*
X174853600Y-110642400D02*
X174853600Y-103022400D01*
X176123600Y-110642400D02*
X174853600Y-110642400D01*
X237083600Y-100482400D02*
X224383600Y-100482400D01*
X224383600Y-100482400D02*
X224383600Y-113182400D01*
X224383600Y-113182400D02*
X237083600Y-113182400D01*
X237083600Y-101752400D02*
X235813600Y-101752400D01*
X235813600Y-101752400D02*
X235813600Y-111912400D01*
X235813600Y-111912400D02*
X237083600Y-111912400D01*
X220573600Y-105562400D02*
X220573600Y-108102400D01*
X220573600Y-108102400D02*
X216763600Y-108102400D01*
X216763600Y-108102400D02*
X216763600Y-105562400D01*
X216763600Y-105562400D02*
X220573600Y-105562400D01*
X182422800Y-110131600D02*
X195122800Y-110131600D01*
X195122800Y-110131600D02*
X195122800Y-112671600D01*
X195122800Y-112671600D02*
X182422800Y-112671600D01*
X182422800Y-112671600D02*
X182422800Y-110131600D01*
X182422800Y-110131600D02*
X184962800Y-110131600D01*
X184962800Y-110131600D02*
X184962800Y-112671600D01*
X189353600Y-100730800D02*
X189353600Y-106730800D01*
X189353600Y-106730800D02*
X193353600Y-106730800D01*
X193353600Y-106730800D02*
X193353600Y-100480800D01*
X193353600Y-100480800D02*
X189353600Y-100480800D01*
X189353600Y-100480800D02*
X189353600Y-100730800D01*
X198983600Y-113182400D02*
X211683600Y-113182400D01*
X211683600Y-113182400D02*
X211683600Y-100482400D01*
X211683600Y-100482400D02*
X198983600Y-100482400D01*
X198983600Y-100482400D02*
X198983600Y-113182400D01*
X219566626Y-106832400D02*
G75*
G03*
X219566626Y-106832400I-898026J0D01*
G01*
D11*
%TO.C,J2*%
X172080000Y-128580000D02*
X172080000Y-123380000D01*
X161860000Y-128580000D02*
X172080000Y-128580000D01*
X159260000Y-123380000D02*
X172080000Y-123380000D01*
X161860000Y-128580000D02*
X161860000Y-125980000D01*
X161860000Y-125980000D02*
X159260000Y-125980000D01*
X159260000Y-125980000D02*
X159260000Y-123380000D01*
X160590000Y-128580000D02*
X159260000Y-128580000D01*
X159260000Y-128580000D02*
X159260000Y-127250000D01*
%TO.C,J6*%
X116332000Y-85090000D02*
X116332000Y-86360000D01*
X115062000Y-85090000D02*
X116332000Y-85090000D01*
X104522000Y-87402929D02*
X104522000Y-87857071D01*
X105282000Y-87402929D02*
X105282000Y-87857071D01*
X104522000Y-89942929D02*
X104522000Y-90340000D01*
X105282000Y-89942929D02*
X105282000Y-90340000D01*
X104522000Y-99000000D02*
X104522000Y-93000000D01*
X105282000Y-99000000D02*
X104522000Y-99000000D01*
X105282000Y-93000000D02*
X105282000Y-99000000D01*
X106172000Y-90340000D02*
X106172000Y-93000000D01*
X107062000Y-87402929D02*
X107062000Y-87857071D01*
X107822000Y-87402929D02*
X107822000Y-87857071D01*
X107062000Y-89942929D02*
X107062000Y-90340000D01*
X107822000Y-89942929D02*
X107822000Y-90340000D01*
X107062000Y-99000000D02*
X107062000Y-93000000D01*
X107822000Y-99000000D02*
X107062000Y-99000000D01*
X107822000Y-93000000D02*
X107822000Y-99000000D01*
X108712000Y-90340000D02*
X108712000Y-93000000D01*
X109602000Y-87402929D02*
X109602000Y-87857071D01*
X110362000Y-87402929D02*
X110362000Y-87857071D01*
X109602000Y-89942929D02*
X109602000Y-90340000D01*
X110362000Y-89942929D02*
X110362000Y-90340000D01*
X109602000Y-99000000D02*
X109602000Y-93000000D01*
X110362000Y-99000000D02*
X109602000Y-99000000D01*
X110362000Y-93000000D02*
X110362000Y-99000000D01*
X111252000Y-90340000D02*
X111252000Y-93000000D01*
X112142000Y-87402929D02*
X112142000Y-87857071D01*
X112902000Y-87402929D02*
X112902000Y-87857071D01*
X112142000Y-89942929D02*
X112142000Y-90340000D01*
X112902000Y-89942929D02*
X112902000Y-90340000D01*
X112142000Y-99000000D02*
X112142000Y-93000000D01*
X112902000Y-99000000D02*
X112142000Y-99000000D01*
X112902000Y-93000000D02*
X112902000Y-99000000D01*
X113792000Y-90340000D02*
X113792000Y-93000000D01*
X114682000Y-87470000D02*
X114682000Y-87857071D01*
X115442000Y-87470000D02*
X115442000Y-87857071D01*
X114682000Y-89942929D02*
X114682000Y-90340000D01*
X115442000Y-89942929D02*
X115442000Y-90340000D01*
X114782000Y-93000000D02*
X114782000Y-99000000D01*
X114902000Y-93000000D02*
X114902000Y-99000000D01*
X115022000Y-93000000D02*
X115022000Y-99000000D01*
X115142000Y-93000000D02*
X115142000Y-99000000D01*
X115262000Y-93000000D02*
X115262000Y-99000000D01*
X115382000Y-93000000D02*
X115382000Y-99000000D01*
X114682000Y-99000000D02*
X114682000Y-93000000D01*
X115442000Y-99000000D02*
X114682000Y-99000000D01*
X115442000Y-93000000D02*
X115442000Y-99000000D01*
X116392000Y-93000000D02*
X116392000Y-90340000D01*
X103572000Y-93000000D02*
X116392000Y-93000000D01*
X103572000Y-90340000D02*
X103572000Y-93000000D01*
X116392000Y-90340000D02*
X103572000Y-90340000D01*
%TO.C,J5*%
X139446000Y-85344000D02*
X139446000Y-86614000D01*
X138176000Y-85344000D02*
X139446000Y-85344000D01*
X127636000Y-87656929D02*
X127636000Y-88111071D01*
X128396000Y-87656929D02*
X128396000Y-88111071D01*
X127636000Y-90196929D02*
X127636000Y-90594000D01*
X128396000Y-90196929D02*
X128396000Y-90594000D01*
X127636000Y-99254000D02*
X127636000Y-93254000D01*
X128396000Y-99254000D02*
X127636000Y-99254000D01*
X128396000Y-93254000D02*
X128396000Y-99254000D01*
X129286000Y-90594000D02*
X129286000Y-93254000D01*
X130176000Y-87656929D02*
X130176000Y-88111071D01*
X130936000Y-87656929D02*
X130936000Y-88111071D01*
X130176000Y-90196929D02*
X130176000Y-90594000D01*
X130936000Y-90196929D02*
X130936000Y-90594000D01*
X130176000Y-99254000D02*
X130176000Y-93254000D01*
X130936000Y-99254000D02*
X130176000Y-99254000D01*
X130936000Y-93254000D02*
X130936000Y-99254000D01*
X131826000Y-90594000D02*
X131826000Y-93254000D01*
X132716000Y-87656929D02*
X132716000Y-88111071D01*
X133476000Y-87656929D02*
X133476000Y-88111071D01*
X132716000Y-90196929D02*
X132716000Y-90594000D01*
X133476000Y-90196929D02*
X133476000Y-90594000D01*
X132716000Y-99254000D02*
X132716000Y-93254000D01*
X133476000Y-99254000D02*
X132716000Y-99254000D01*
X133476000Y-93254000D02*
X133476000Y-99254000D01*
X134366000Y-90594000D02*
X134366000Y-93254000D01*
X135256000Y-87656929D02*
X135256000Y-88111071D01*
X136016000Y-87656929D02*
X136016000Y-88111071D01*
X135256000Y-90196929D02*
X135256000Y-90594000D01*
X136016000Y-90196929D02*
X136016000Y-90594000D01*
X135256000Y-99254000D02*
X135256000Y-93254000D01*
X136016000Y-99254000D02*
X135256000Y-99254000D01*
X136016000Y-93254000D02*
X136016000Y-99254000D01*
X136906000Y-90594000D02*
X136906000Y-93254000D01*
X137796000Y-87724000D02*
X137796000Y-88111071D01*
X138556000Y-87724000D02*
X138556000Y-88111071D01*
X137796000Y-90196929D02*
X137796000Y-90594000D01*
X138556000Y-90196929D02*
X138556000Y-90594000D01*
X137896000Y-93254000D02*
X137896000Y-99254000D01*
X138016000Y-93254000D02*
X138016000Y-99254000D01*
X138136000Y-93254000D02*
X138136000Y-99254000D01*
X138256000Y-93254000D02*
X138256000Y-99254000D01*
X138376000Y-93254000D02*
X138376000Y-99254000D01*
X138496000Y-93254000D02*
X138496000Y-99254000D01*
X137796000Y-99254000D02*
X137796000Y-93254000D01*
X138556000Y-99254000D02*
X137796000Y-99254000D01*
X138556000Y-93254000D02*
X138556000Y-99254000D01*
X139506000Y-93254000D02*
X139506000Y-90594000D01*
X126686000Y-93254000D02*
X139506000Y-93254000D01*
X126686000Y-90594000D02*
X126686000Y-93254000D01*
X139506000Y-90594000D02*
X126686000Y-90594000D01*
%TO.C,C28*%
X134510000Y-68738748D02*
X134510000Y-70161252D01*
X132690000Y-68738748D02*
X132690000Y-70161252D01*
%TO.C,JS2*%
X121513600Y-74493725D02*
X121763600Y-74926738D01*
X121263600Y-74926738D02*
X121513600Y-74493725D01*
X121763600Y-74926738D02*
X121263600Y-74926738D01*
X100488600Y-74032400D02*
X100488600Y-63552400D01*
X131458600Y-74032400D02*
X100488600Y-74032400D01*
X131458600Y-63552400D02*
X131458600Y-74032400D01*
%TO.C,J8*%
X114989000Y-128767000D02*
X114439000Y-128767000D01*
X124839000Y-128767000D02*
X125349000Y-128767000D01*
X111379000Y-128767000D02*
X112939000Y-128767000D01*
X125349000Y-128767000D02*
X125349000Y-132377000D01*
X111379000Y-128767000D02*
X111379000Y-142827000D01*
X125349000Y-134077000D02*
X125349000Y-138777000D01*
X125349000Y-140077000D02*
X125349000Y-141177000D01*
X124229000Y-143987000D02*
X116199000Y-143987000D01*
X116199000Y-143987000D02*
X116199000Y-144437000D01*
X113289000Y-144937000D02*
X115689000Y-144937000D01*
X115699000Y-144927000D02*
X116199000Y-144437000D01*
X124229000Y-143987000D02*
X124229000Y-144437000D01*
%TO.C,U25*%
X83940000Y-138854000D02*
X83940000Y-128354000D01*
X63380000Y-138854000D02*
X83940000Y-138854000D01*
X63380000Y-128354000D02*
X63380000Y-138854000D01*
X83940000Y-128354000D02*
X63380000Y-128354000D01*
X83880000Y-135854000D02*
X83880000Y-134604000D01*
X63440000Y-135854000D02*
X83880000Y-135854000D01*
X63440000Y-131354000D02*
X63440000Y-135854000D01*
X83880000Y-131354000D02*
X63440000Y-131354000D01*
X83880000Y-132604000D02*
X83880000Y-131354000D01*
X83880000Y-134604000D02*
G75*
G02*
X83880000Y-132604000I0J1000000D01*
G01*
D13*
%TO.C,U24*%
X79168000Y-126765000D02*
X79168000Y-125240000D01*
X68893000Y-126765000D02*
X68893000Y-132315000D01*
X79443000Y-126765000D02*
X79443000Y-132315000D01*
X68893000Y-126765000D02*
X69248000Y-126765000D01*
X68893000Y-132315000D02*
X69248000Y-132315000D01*
X79443000Y-132315000D02*
X79088000Y-132315000D01*
X79443000Y-126765000D02*
X79168000Y-126765000D01*
D11*
%TO.C,U23*%
X105276000Y-138854000D02*
X105276000Y-128354000D01*
X84716000Y-138854000D02*
X105276000Y-138854000D01*
X84716000Y-128354000D02*
X84716000Y-138854000D01*
X105276000Y-128354000D02*
X84716000Y-128354000D01*
X105216000Y-135854000D02*
X105216000Y-134604000D01*
X84776000Y-135854000D02*
X105216000Y-135854000D01*
X84776000Y-131354000D02*
X84776000Y-135854000D01*
X105216000Y-131354000D02*
X84776000Y-131354000D01*
X105216000Y-132604000D02*
X105216000Y-131354000D01*
X105216000Y-134604000D02*
G75*
G02*
X105216000Y-132604000I0J1000000D01*
G01*
D13*
%TO.C,U22*%
X98980000Y-126759000D02*
X98980000Y-125234000D01*
X88705000Y-126759000D02*
X88705000Y-132309000D01*
X99255000Y-126759000D02*
X99255000Y-132309000D01*
X88705000Y-126759000D02*
X89060000Y-126759000D01*
X88705000Y-132309000D02*
X89060000Y-132309000D01*
X99255000Y-132309000D02*
X98900000Y-132309000D01*
X99255000Y-126759000D02*
X98980000Y-126759000D01*
D11*
%TO.C,U21*%
X78526800Y-120130800D02*
X78526800Y-116680800D01*
X78526800Y-120130800D02*
X78526800Y-122080800D01*
X69656800Y-120130800D02*
X69656800Y-118180800D01*
X69656800Y-120130800D02*
X69656800Y-122080800D01*
%TO.C,U10*%
X98415000Y-120142000D02*
X98415000Y-116692000D01*
X98415000Y-120142000D02*
X98415000Y-122092000D01*
X89545000Y-120142000D02*
X89545000Y-118192000D01*
X89545000Y-120142000D02*
X89545000Y-122092000D01*
%TO.C,J14*%
X76260000Y-140910000D02*
X76260000Y-142240000D01*
X74930000Y-140910000D02*
X76260000Y-140910000D01*
X73660000Y-140910000D02*
X73660000Y-143570000D01*
X73660000Y-143570000D02*
X63440000Y-143570000D01*
X73660000Y-140910000D02*
X63440000Y-140910000D01*
X63440000Y-140910000D02*
X63440000Y-143570000D01*
%TO.C,J13*%
X91754000Y-140910000D02*
X91754000Y-142240000D01*
X90424000Y-140910000D02*
X91754000Y-140910000D01*
X89154000Y-140910000D02*
X89154000Y-143570000D01*
X89154000Y-143570000D02*
X78934000Y-143570000D01*
X89154000Y-140910000D02*
X78934000Y-140910000D01*
X78934000Y-140910000D02*
X78934000Y-143570000D01*
%TO.C,J9*%
X107756000Y-140884600D02*
X107756000Y-142214600D01*
X106426000Y-140884600D02*
X107756000Y-140884600D01*
X105156000Y-140884600D02*
X105156000Y-143544600D01*
X105156000Y-143544600D02*
X94936000Y-143544600D01*
X105156000Y-140884600D02*
X94936000Y-140884600D01*
X94936000Y-140884600D02*
X94936000Y-143544600D01*
%TO.C,C27*%
X228168252Y-94975000D02*
X226745748Y-94975000D01*
X228168252Y-96795000D02*
X226745748Y-96795000D01*
D14*
%TO.C,J7*%
X166598600Y-77792647D02*
X166598600Y-75870173D01*
X150088600Y-80460173D02*
X150088600Y-82403010D01*
X166598600Y-73202647D02*
X166598600Y-60609810D01*
X150088600Y-75870173D02*
X150088600Y-77792647D01*
X166598600Y-60609810D02*
X150088600Y-60609810D01*
X150088600Y-60609810D02*
X150088600Y-73202647D01*
X150088600Y-82403010D02*
X166598600Y-82403010D01*
X166598600Y-82403010D02*
X166598600Y-80460173D01*
X168757600Y-74046410D02*
G75*
G03*
X168757600Y-74046410I-381000J0D01*
G01*
D11*
%TO.C,C1*%
X165003000Y-87395000D02*
X165708000Y-87395000D01*
X162968000Y-87395000D02*
X163673000Y-87395000D01*
X165003000Y-91635000D02*
X165708000Y-91635000D01*
X162968000Y-91635000D02*
X163673000Y-91635000D01*
X165708000Y-91635000D02*
X165708000Y-87395000D01*
X162968000Y-91635000D02*
X162968000Y-87395000D01*
%TO.C,J10*%
X150250000Y-129000000D02*
X155250000Y-129000000D01*
X150250000Y-123000000D02*
X150250000Y-129000000D01*
X155250000Y-123000000D02*
X150250000Y-123000000D01*
X155250000Y-129000000D02*
X155250000Y-123000000D01*
X155750000Y-127500000D02*
X156350000Y-127800000D01*
X156350000Y-127800000D02*
X156350000Y-127200000D01*
X156350000Y-127200000D02*
X155750000Y-127500000D01*
%TO.C,U9*%
X147123200Y-75458400D02*
X145863200Y-75458400D01*
X140303200Y-75458400D02*
X141563200Y-75458400D01*
X147123200Y-79218400D02*
X147123200Y-75458400D01*
X140303200Y-81468400D02*
X140303200Y-75458400D01*
%TO.C,U8*%
X144814000Y-74946400D02*
X146124000Y-74946400D01*
X146124000Y-74946400D02*
X146124000Y-77666400D01*
X141634000Y-78806400D02*
X141634000Y-77666400D01*
X141404000Y-74946400D02*
X142714000Y-74946400D01*
X141404000Y-77666400D02*
X141404000Y-74946400D01*
X141404000Y-77666400D02*
X141634000Y-77666400D01*
X146124000Y-77666400D02*
X145894000Y-77666400D01*
%TO.C,J1*%
X137364800Y-62212800D02*
X145184800Y-62212800D01*
X143384800Y-71532800D02*
X143384800Y-71962800D01*
X137364800Y-62212800D02*
X137364800Y-64162800D01*
X137364800Y-66382800D02*
X137364800Y-69612800D01*
X139164800Y-71532800D02*
X138084800Y-71532800D01*
X144464800Y-71532800D02*
X143384800Y-71532800D01*
X145184800Y-66382800D02*
X145184800Y-69612800D01*
X145184800Y-62212800D02*
X145184800Y-64162800D01*
%TO.C,C8*%
X133504000Y-81734252D02*
X133504000Y-81211748D01*
X134974000Y-81734252D02*
X134974000Y-81211748D01*
%TO.C,C6*%
X135663000Y-81795252D02*
X135663000Y-81272748D01*
X137133000Y-81795252D02*
X137133000Y-81272748D01*
%TO.C,C5*%
X147855000Y-66428252D02*
X147855000Y-65905748D01*
X149325000Y-66428252D02*
X149325000Y-65905748D01*
%TO.C,C4*%
X137822000Y-81856252D02*
X137822000Y-81333748D01*
X139292000Y-81856252D02*
X139292000Y-81333748D01*
%TO.C,C3*%
X149325000Y-69522748D02*
X149325000Y-70045252D01*
X147855000Y-69522748D02*
X147855000Y-70045252D01*
%TO.C,U20*%
X91713500Y-103455600D02*
X92493500Y-103455600D01*
X92493500Y-103455600D02*
X92493500Y-102455600D01*
X91713500Y-85215600D02*
X92493500Y-85215600D01*
X92493500Y-85215600D02*
X92493500Y-86215600D01*
X66748500Y-103455600D02*
X66748500Y-85215600D01*
X66748500Y-85215600D02*
X73168500Y-85215600D01*
X66748500Y-103455600D02*
X73168500Y-103455600D01*
X73168500Y-103455600D02*
X73168500Y-103835600D01*
%TO.C,U6*%
X182627600Y-132621200D02*
X182627600Y-133021200D01*
X182627600Y-130021200D02*
X182627600Y-130421200D01*
X182627600Y-142021200D02*
X182627600Y-135221200D01*
X193027600Y-142021200D02*
X192627600Y-142021200D01*
X200727600Y-142021200D02*
X200327600Y-142021200D01*
X226127600Y-142021200D02*
X225727600Y-142021200D01*
X233627600Y-142021200D02*
X233327600Y-142021200D01*
X210827600Y-142021200D02*
X210427600Y-142021200D01*
X195627600Y-142021200D02*
X195227600Y-142021200D01*
X215927600Y-142021200D02*
X215527600Y-142021200D01*
X221027600Y-142021200D02*
X220627600Y-142021200D01*
X208327600Y-142021200D02*
X207927600Y-142021200D01*
X203227600Y-142021200D02*
X202827600Y-142021200D01*
X188027600Y-142021200D02*
X187627600Y-142021200D01*
X185427600Y-142021200D02*
X185027600Y-142021200D01*
X190527600Y-142021200D02*
X190127600Y-142021200D01*
X223527600Y-142021200D02*
X223127600Y-142021200D01*
X231227600Y-142021200D02*
X230827600Y-142021200D01*
X228627600Y-142021200D02*
X228227600Y-142021200D01*
X198127600Y-142021200D02*
X197727600Y-142021200D01*
X205827600Y-142021200D02*
X205427600Y-142021200D01*
X213427600Y-142021200D02*
X213027600Y-142021200D01*
X218527600Y-142021200D02*
X218127600Y-142021200D01*
X185427600Y-121021200D02*
X185027600Y-121021200D01*
X188027600Y-121021200D02*
X187627600Y-121021200D01*
X190527600Y-121021200D02*
X190127600Y-121021200D01*
X193027600Y-121021200D02*
X192627600Y-121021200D01*
X195627600Y-121021200D02*
X195227600Y-121021200D01*
X198127600Y-121021200D02*
X197727600Y-121021200D01*
X200727600Y-121021200D02*
X200327600Y-121021200D01*
X203227600Y-121021200D02*
X202827600Y-121021200D01*
X205827600Y-121021200D02*
X205427600Y-121021200D01*
X208327600Y-121021200D02*
X207927600Y-121021200D01*
X210827600Y-121021200D02*
X210427600Y-121021200D01*
X213427600Y-121021200D02*
X213027600Y-121021200D01*
X215927600Y-121021200D02*
X215527600Y-121021200D01*
X218527600Y-121021200D02*
X218127600Y-121021200D01*
X221027600Y-121021200D02*
X220627600Y-121021200D01*
X223527600Y-121021200D02*
X223127600Y-121021200D01*
X226127600Y-121021200D02*
X225727600Y-121021200D01*
X228627600Y-121021200D02*
X228227600Y-121021200D01*
X231227600Y-121021200D02*
X230827600Y-121021200D01*
X233627600Y-121021200D02*
X233327600Y-121021200D01*
X230960600Y-124028200D02*
X233627600Y-124028200D01*
X230960600Y-121021200D02*
X230960600Y-124028200D01*
X182627600Y-127821200D02*
X182627600Y-121021200D01*
X233627600Y-121021200D02*
X233627600Y-142021200D01*
%TO.C,JS1*%
X88544400Y-74696925D02*
X88794400Y-75129938D01*
X88294400Y-75129938D02*
X88544400Y-74696925D01*
X88794400Y-75129938D02*
X88294400Y-75129938D01*
X67519400Y-74235600D02*
X67519400Y-63755600D01*
X98489400Y-74235600D02*
X67519400Y-74235600D01*
X98489400Y-63755600D02*
X98489400Y-74235600D01*
%TO.C,U14*%
X158897000Y-98614000D02*
X158897000Y-95164000D01*
X158897000Y-98614000D02*
X158897000Y-100564000D01*
X153777000Y-98614000D02*
X153777000Y-96664000D01*
X153777000Y-98614000D02*
X153777000Y-100564000D01*
%TO.C,U13*%
X168551000Y-94075200D02*
X166121000Y-94075200D01*
X166791000Y-97145200D02*
X168551000Y-97145200D01*
%TO.C,U12*%
X158574000Y-91388000D02*
X156144000Y-91388000D01*
X156814000Y-94458000D02*
X158574000Y-94458000D01*
D15*
%TO.C,U11*%
X141380000Y-84944000D02*
G75*
G03*
X141380000Y-84944000I-100000J0D01*
G01*
D10*
X155280000Y-84444000D02*
X157140000Y-84444000D01*
X152740000Y-84444000D02*
X154600000Y-84444000D01*
X145850000Y-84444000D02*
X146980000Y-84444000D01*
X157820000Y-84444000D02*
X161720000Y-84444000D01*
X147660000Y-84444000D02*
X152060000Y-84444000D01*
X142070000Y-84444000D02*
X143710000Y-84444000D01*
X161720000Y-90444000D02*
X142070000Y-90444000D01*
X161720000Y-90444000D02*
X161720000Y-84444000D01*
X142070000Y-84444000D02*
X142070000Y-90444000D01*
D11*
%TO.C,C14*%
X162379748Y-101700200D02*
X162902252Y-101700200D01*
X162379748Y-100230200D02*
X162902252Y-100230200D01*
%TO.C,C13*%
X166829748Y-100050200D02*
X167352252Y-100050200D01*
X166829748Y-98580200D02*
X167352252Y-98580200D01*
%TO.C,C12*%
X162902252Y-97220200D02*
X162379748Y-97220200D01*
X162902252Y-98690200D02*
X162379748Y-98690200D01*
%TO.C,C11*%
X170883252Y-98579000D02*
X170360748Y-98579000D01*
X170883252Y-100049000D02*
X170360748Y-100049000D01*
%TO.C,C10*%
X152427000Y-92382748D02*
X152427000Y-92905252D01*
X153897000Y-92382748D02*
X153897000Y-92905252D01*
%TO.C,C9*%
X162882252Y-95150000D02*
X162359748Y-95150000D01*
X162882252Y-96620000D02*
X162359748Y-96620000D01*
%TO.C,A2*%
D16*
X230890964Y-96642791D02*
X231368054Y-96642791D01*
X230795546Y-96929045D02*
X231129509Y-95927155D01*
X231463472Y-96929045D01*
X231749727Y-96022574D02*
X231797436Y-95974865D01*
X231892854Y-95927155D01*
X232131399Y-95927155D01*
X232226817Y-95974865D01*
X232274526Y-96022574D01*
X232322235Y-96117992D01*
X232322235Y-96213410D01*
X232274526Y-96356537D01*
X231702018Y-96929045D01*
X232322235Y-96929045D01*
X228951507Y-86980528D02*
X228493892Y-86980528D01*
X228722700Y-86980528D02*
X228722700Y-86179701D01*
X228646430Y-86294105D01*
X228570161Y-86370374D01*
X228493892Y-86408509D01*
%TO.C,R1*%
D13*
X86583333Y-77552380D02*
X86250000Y-77076190D01*
X86011904Y-77552380D02*
X86011904Y-76552380D01*
X86392857Y-76552380D01*
X86488095Y-76600000D01*
X86535714Y-76647619D01*
X86583333Y-76742857D01*
X86583333Y-76885714D01*
X86535714Y-76980952D01*
X86488095Y-77028571D01*
X86392857Y-77076190D01*
X86011904Y-77076190D01*
X87535714Y-77552380D02*
X86964285Y-77552380D01*
X87250000Y-77552380D02*
X87250000Y-76552380D01*
X87154761Y-76695238D01*
X87059523Y-76790476D01*
X86964285Y-76838095D01*
%TO.C,J4*%
X141166666Y-131282380D02*
X141166666Y-131996666D01*
X141119047Y-132139523D01*
X141023809Y-132234761D01*
X140880952Y-132282380D01*
X140785714Y-132282380D01*
X142071428Y-131615714D02*
X142071428Y-132282380D01*
X141833333Y-131234761D02*
X141595238Y-131949047D01*
X142214285Y-131949047D01*
%TO.C,J3*%
X147166666Y-131282380D02*
X147166666Y-131996666D01*
X147119047Y-132139523D01*
X147023809Y-132234761D01*
X146880952Y-132282380D01*
X146785714Y-132282380D01*
X147547619Y-131282380D02*
X148166666Y-131282380D01*
X147833333Y-131663333D01*
X147976190Y-131663333D01*
X148071428Y-131710952D01*
X148119047Y-131758571D01*
X148166666Y-131853809D01*
X148166666Y-132091904D01*
X148119047Y-132187142D01*
X148071428Y-132234761D01*
X147976190Y-132282380D01*
X147690476Y-132282380D01*
X147595238Y-132234761D01*
X147547619Y-132187142D01*
%TO.C,U5*%
X205841695Y-96124780D02*
X205841695Y-96934304D01*
X205889314Y-97029542D01*
X205936933Y-97077161D01*
X206032171Y-97124780D01*
X206222647Y-97124780D01*
X206317885Y-97077161D01*
X206365504Y-97029542D01*
X206413123Y-96934304D01*
X206413123Y-96124780D01*
X207365504Y-96124780D02*
X206889314Y-96124780D01*
X206841695Y-96600971D01*
X206889314Y-96553352D01*
X206984552Y-96505733D01*
X207222647Y-96505733D01*
X207317885Y-96553352D01*
X207365504Y-96600971D01*
X207413123Y-96696209D01*
X207413123Y-96934304D01*
X207365504Y-97029542D01*
X207317885Y-97077161D01*
X207222647Y-97124780D01*
X206984552Y-97124780D01*
X206889314Y-97077161D01*
X206841695Y-97029542D01*
X184828276Y-108773980D02*
X184828276Y-109583504D01*
X184875895Y-109678742D01*
X184923514Y-109726361D01*
X185018752Y-109773980D01*
X185209228Y-109773980D01*
X185304466Y-109726361D01*
X185352085Y-109678742D01*
X185399704Y-109583504D01*
X185399704Y-108773980D01*
X185828276Y-109726361D02*
X185971133Y-109773980D01*
X186209228Y-109773980D01*
X186304466Y-109726361D01*
X186352085Y-109678742D01*
X186399704Y-109583504D01*
X186399704Y-109488266D01*
X186352085Y-109393028D01*
X186304466Y-109345409D01*
X186209228Y-109297790D01*
X186018752Y-109250171D01*
X185923514Y-109202552D01*
X185875895Y-109154933D01*
X185828276Y-109059695D01*
X185828276Y-108964457D01*
X185875895Y-108869219D01*
X185923514Y-108821600D01*
X186018752Y-108773980D01*
X186256847Y-108773980D01*
X186399704Y-108821600D01*
X187161609Y-109250171D02*
X187304466Y-109297790D01*
X187352085Y-109345409D01*
X187399704Y-109440647D01*
X187399704Y-109583504D01*
X187352085Y-109678742D01*
X187304466Y-109726361D01*
X187209228Y-109773980D01*
X186828276Y-109773980D01*
X186828276Y-108773980D01*
X187161609Y-108773980D01*
X187256847Y-108821600D01*
X187304466Y-108869219D01*
X187352085Y-108964457D01*
X187352085Y-109059695D01*
X187304466Y-109154933D01*
X187256847Y-109202552D01*
X187161609Y-109250171D01*
X186828276Y-109250171D01*
X188590180Y-109773980D02*
X188590180Y-108773980D01*
X188590180Y-109250171D02*
X189161609Y-109250171D01*
X189161609Y-109773980D02*
X189161609Y-108773980D01*
X189780657Y-109773980D02*
X189685419Y-109726361D01*
X189637800Y-109678742D01*
X189590180Y-109583504D01*
X189590180Y-109297790D01*
X189637800Y-109202552D01*
X189685419Y-109154933D01*
X189780657Y-109107314D01*
X189923514Y-109107314D01*
X190018752Y-109154933D01*
X190066371Y-109202552D01*
X190113990Y-109297790D01*
X190113990Y-109583504D01*
X190066371Y-109678742D01*
X190018752Y-109726361D01*
X189923514Y-109773980D01*
X189780657Y-109773980D01*
X190494942Y-109726361D02*
X190590180Y-109773980D01*
X190780657Y-109773980D01*
X190875895Y-109726361D01*
X190923514Y-109631123D01*
X190923514Y-109583504D01*
X190875895Y-109488266D01*
X190780657Y-109440647D01*
X190637800Y-109440647D01*
X190542561Y-109393028D01*
X190494942Y-109297790D01*
X190494942Y-109250171D01*
X190542561Y-109154933D01*
X190637800Y-109107314D01*
X190780657Y-109107314D01*
X190875895Y-109154933D01*
X191209228Y-109107314D02*
X191590180Y-109107314D01*
X191352085Y-108773980D02*
X191352085Y-109631123D01*
X191399704Y-109726361D01*
X191494942Y-109773980D01*
X191590180Y-109773980D01*
X194467171Y-106412942D02*
X194467171Y-106079609D01*
X194990980Y-105936752D02*
X194990980Y-106412942D01*
X193990980Y-106412942D01*
X193990980Y-105936752D01*
X194324314Y-105651038D02*
X194324314Y-105270085D01*
X193990980Y-105508180D02*
X194848123Y-105508180D01*
X194943361Y-105460561D01*
X194990980Y-105365323D01*
X194990980Y-105270085D01*
X194990980Y-104936752D02*
X193990980Y-104936752D01*
X194990980Y-104508180D02*
X194467171Y-104508180D01*
X194371933Y-104555800D01*
X194324314Y-104651038D01*
X194324314Y-104793895D01*
X194371933Y-104889133D01*
X194419552Y-104936752D01*
X194943361Y-103651038D02*
X194990980Y-103746276D01*
X194990980Y-103936752D01*
X194943361Y-104031990D01*
X194848123Y-104079609D01*
X194467171Y-104079609D01*
X194371933Y-104031990D01*
X194324314Y-103936752D01*
X194324314Y-103746276D01*
X194371933Y-103651038D01*
X194467171Y-103603419D01*
X194562409Y-103603419D01*
X194657647Y-104079609D01*
X194990980Y-103174847D02*
X194324314Y-103174847D01*
X194514790Y-103174847D02*
X194419552Y-103127228D01*
X194371933Y-103079609D01*
X194324314Y-102984371D01*
X194324314Y-102889133D01*
X194324314Y-102555800D02*
X194990980Y-102555800D01*
X194419552Y-102555800D02*
X194371933Y-102508180D01*
X194324314Y-102412942D01*
X194324314Y-102270085D01*
X194371933Y-102174847D01*
X194467171Y-102127228D01*
X194990980Y-102127228D01*
X194943361Y-101270085D02*
X194990980Y-101365323D01*
X194990980Y-101555800D01*
X194943361Y-101651038D01*
X194848123Y-101698657D01*
X194467171Y-101698657D01*
X194371933Y-101651038D01*
X194324314Y-101555800D01*
X194324314Y-101365323D01*
X194371933Y-101270085D01*
X194467171Y-101222466D01*
X194562409Y-101222466D01*
X194657647Y-101698657D01*
X194324314Y-100936752D02*
X194324314Y-100555800D01*
X193990980Y-100793895D02*
X194848123Y-100793895D01*
X194943361Y-100746276D01*
X194990980Y-100651038D01*
X194990980Y-100555800D01*
X179385980Y-108094304D02*
X180195504Y-108094304D01*
X180290742Y-108046685D01*
X180338361Y-107999066D01*
X180385980Y-107903828D01*
X180385980Y-107713352D01*
X180338361Y-107618114D01*
X180290742Y-107570495D01*
X180195504Y-107522876D01*
X179385980Y-107522876D01*
X180338361Y-107094304D02*
X180385980Y-106951447D01*
X180385980Y-106713352D01*
X180338361Y-106618114D01*
X180290742Y-106570495D01*
X180195504Y-106522876D01*
X180100266Y-106522876D01*
X180005028Y-106570495D01*
X179957409Y-106618114D01*
X179909790Y-106713352D01*
X179862171Y-106903828D01*
X179814552Y-106999066D01*
X179766933Y-107046685D01*
X179671695Y-107094304D01*
X179576457Y-107094304D01*
X179481219Y-107046685D01*
X179433600Y-106999066D01*
X179385980Y-106903828D01*
X179385980Y-106665733D01*
X179433600Y-106522876D01*
X179862171Y-105760971D02*
X179909790Y-105618114D01*
X179957409Y-105570495D01*
X180052647Y-105522876D01*
X180195504Y-105522876D01*
X180290742Y-105570495D01*
X180338361Y-105618114D01*
X180385980Y-105713352D01*
X180385980Y-106094304D01*
X179385980Y-106094304D01*
X179385980Y-105760971D01*
X179433600Y-105665733D01*
X179481219Y-105618114D01*
X179576457Y-105570495D01*
X179671695Y-105570495D01*
X179766933Y-105618114D01*
X179814552Y-105665733D01*
X179862171Y-105760971D01*
X179862171Y-106094304D01*
X227614552Y-107284780D02*
X227614552Y-106284780D01*
X227947885Y-106999066D01*
X228281219Y-106284780D01*
X228281219Y-107284780D01*
X228757409Y-107284780D02*
X228757409Y-106618114D01*
X228757409Y-106284780D02*
X228709790Y-106332400D01*
X228757409Y-106380019D01*
X228805028Y-106332400D01*
X228757409Y-106284780D01*
X228757409Y-106380019D01*
X229662171Y-107237161D02*
X229566933Y-107284780D01*
X229376457Y-107284780D01*
X229281219Y-107237161D01*
X229233600Y-107189542D01*
X229185980Y-107094304D01*
X229185980Y-106808590D01*
X229233600Y-106713352D01*
X229281219Y-106665733D01*
X229376457Y-106618114D01*
X229566933Y-106618114D01*
X229662171Y-106665733D01*
X230090742Y-107284780D02*
X230090742Y-106618114D01*
X230090742Y-106808590D02*
X230138361Y-106713352D01*
X230185980Y-106665733D01*
X230281219Y-106618114D01*
X230376457Y-106618114D01*
X230852647Y-107284780D02*
X230757409Y-107237161D01*
X230709790Y-107189542D01*
X230662171Y-107094304D01*
X230662171Y-106808590D01*
X230709790Y-106713352D01*
X230757409Y-106665733D01*
X230852647Y-106618114D01*
X230995504Y-106618114D01*
X231090742Y-106665733D01*
X231138361Y-106713352D01*
X231185980Y-106808590D01*
X231185980Y-107094304D01*
X231138361Y-107189542D01*
X231090742Y-107237161D01*
X230995504Y-107284780D01*
X230852647Y-107284780D01*
X232328838Y-107237161D02*
X232471695Y-107284780D01*
X232709790Y-107284780D01*
X232805028Y-107237161D01*
X232852647Y-107189542D01*
X232900266Y-107094304D01*
X232900266Y-106999066D01*
X232852647Y-106903828D01*
X232805028Y-106856209D01*
X232709790Y-106808590D01*
X232519314Y-106760971D01*
X232424076Y-106713352D01*
X232376457Y-106665733D01*
X232328838Y-106570495D01*
X232328838Y-106475257D01*
X232376457Y-106380019D01*
X232424076Y-106332400D01*
X232519314Y-106284780D01*
X232757409Y-106284780D01*
X232900266Y-106332400D01*
X233328838Y-107284780D02*
X233328838Y-106284780D01*
X233566933Y-106284780D01*
X233709790Y-106332400D01*
X233805028Y-106427638D01*
X233852647Y-106522876D01*
X233900266Y-106713352D01*
X233900266Y-106856209D01*
X233852647Y-107046685D01*
X233805028Y-107141923D01*
X233709790Y-107237161D01*
X233566933Y-107284780D01*
X233328838Y-107284780D01*
X205650266Y-109915733D02*
X204950266Y-109915733D01*
X205450266Y-109682400D01*
X204950266Y-109449066D01*
X205650266Y-109449066D01*
X205650266Y-109115733D02*
X204950266Y-109115733D01*
X205650266Y-108782400D02*
X204950266Y-108782400D01*
X205450266Y-108549066D01*
X204950266Y-108315733D01*
X205650266Y-108315733D01*
X204950266Y-108049066D02*
X205650266Y-107582400D01*
X204950266Y-107582400D02*
X205650266Y-108049066D01*
X205650266Y-106915733D02*
X205316933Y-107149066D01*
X205650266Y-107315733D02*
X204950266Y-107315733D01*
X204950266Y-107049066D01*
X204983600Y-106982400D01*
X205016933Y-106949066D01*
X205083600Y-106915733D01*
X205183600Y-106915733D01*
X205250266Y-106949066D01*
X205283600Y-106982400D01*
X205316933Y-107049066D01*
X205316933Y-107315733D01*
X204950266Y-106715733D02*
X204950266Y-106315733D01*
X205650266Y-106515733D02*
X204950266Y-106515733D01*
X205650266Y-105715733D02*
X205650266Y-106115733D01*
X205650266Y-105915733D02*
X204950266Y-105915733D01*
X205050266Y-105982400D01*
X205116933Y-106049066D01*
X205150266Y-106115733D01*
X204950266Y-105282400D02*
X204950266Y-105215733D01*
X204983600Y-105149066D01*
X205016933Y-105115733D01*
X205083600Y-105082400D01*
X205216933Y-105049066D01*
X205383600Y-105049066D01*
X205516933Y-105082400D01*
X205583600Y-105115733D01*
X205616933Y-105149066D01*
X205650266Y-105215733D01*
X205650266Y-105282400D01*
X205616933Y-105349066D01*
X205583600Y-105382400D01*
X205516933Y-105415733D01*
X205383600Y-105449066D01*
X205216933Y-105449066D01*
X205083600Y-105415733D01*
X205016933Y-105382400D01*
X204983600Y-105349066D01*
X204950266Y-105282400D01*
X204950266Y-104449066D02*
X204950266Y-104582400D01*
X204983600Y-104649066D01*
X205016933Y-104682400D01*
X205116933Y-104749066D01*
X205250266Y-104782400D01*
X205516933Y-104782400D01*
X205583600Y-104749066D01*
X205616933Y-104715733D01*
X205650266Y-104649066D01*
X205650266Y-104515733D01*
X205616933Y-104449066D01*
X205583600Y-104415733D01*
X205516933Y-104382400D01*
X205350266Y-104382400D01*
X205283600Y-104415733D01*
X205250266Y-104449066D01*
X205216933Y-104515733D01*
X205216933Y-104649066D01*
X205250266Y-104715733D01*
X205283600Y-104749066D01*
X205350266Y-104782400D01*
X205016933Y-104115733D02*
X204983600Y-104082400D01*
X204950266Y-104015733D01*
X204950266Y-103849066D01*
X204983600Y-103782400D01*
X205016933Y-103749066D01*
X205083600Y-103715733D01*
X205150266Y-103715733D01*
X205250266Y-103749066D01*
X205650266Y-104149066D01*
X205650266Y-103715733D01*
X204380266Y-108035733D02*
X203680266Y-108035733D01*
X203680266Y-107869066D01*
X203713600Y-107769066D01*
X203780266Y-107702400D01*
X203846933Y-107669066D01*
X203980266Y-107635733D01*
X204080266Y-107635733D01*
X204213600Y-107669066D01*
X204280266Y-107702400D01*
X204346933Y-107769066D01*
X204380266Y-107869066D01*
X204380266Y-108035733D01*
X203680266Y-107435733D02*
X204380266Y-107202400D01*
X203680266Y-106969066D01*
X203680266Y-106535733D02*
X204180266Y-106535733D01*
X204280266Y-106569066D01*
X204346933Y-106635733D01*
X204380266Y-106735733D01*
X204380266Y-106802400D01*
X203680266Y-105902400D02*
X203680266Y-106035733D01*
X203713600Y-106102400D01*
X203746933Y-106135733D01*
X203846933Y-106202400D01*
X203980266Y-106235733D01*
X204246933Y-106235733D01*
X204313600Y-106202400D01*
X204346933Y-106169066D01*
X204380266Y-106102400D01*
X204380266Y-105969066D01*
X204346933Y-105902400D01*
X204313600Y-105869066D01*
X204246933Y-105835733D01*
X204080266Y-105835733D01*
X204013600Y-105869066D01*
X203980266Y-105902400D01*
X203946933Y-105969066D01*
X203946933Y-106102400D01*
X203980266Y-106169066D01*
X204013600Y-106202400D01*
X204080266Y-106235733D01*
X204180266Y-105569066D02*
X204180266Y-105235733D01*
X204380266Y-105635733D02*
X203680266Y-105402400D01*
X204380266Y-105169066D01*
%TO.C,J2*%
X157712380Y-126313333D02*
X158426666Y-126313333D01*
X158569523Y-126360952D01*
X158664761Y-126456190D01*
X158712380Y-126599047D01*
X158712380Y-126694285D01*
X157807619Y-125884761D02*
X157760000Y-125837142D01*
X157712380Y-125741904D01*
X157712380Y-125503809D01*
X157760000Y-125408571D01*
X157807619Y-125360952D01*
X157902857Y-125313333D01*
X157998095Y-125313333D01*
X158140952Y-125360952D01*
X158712380Y-125932380D01*
X158712380Y-125313333D01*
%TO.C,J6*%
X116784380Y-92348333D02*
X117498666Y-92348333D01*
X117641523Y-92395952D01*
X117736761Y-92491190D01*
X117784380Y-92634047D01*
X117784380Y-92729285D01*
X116784380Y-91443571D02*
X116784380Y-91634047D01*
X116832000Y-91729285D01*
X116879619Y-91776904D01*
X117022476Y-91872142D01*
X117212952Y-91919761D01*
X117593904Y-91919761D01*
X117689142Y-91872142D01*
X117736761Y-91824523D01*
X117784380Y-91729285D01*
X117784380Y-91538809D01*
X117736761Y-91443571D01*
X117689142Y-91395952D01*
X117593904Y-91348333D01*
X117355809Y-91348333D01*
X117260571Y-91395952D01*
X117212952Y-91443571D01*
X117165333Y-91538809D01*
X117165333Y-91729285D01*
X117212952Y-91824523D01*
X117260571Y-91872142D01*
X117355809Y-91919761D01*
%TO.C,J5*%
X139898380Y-92602333D02*
X140612666Y-92602333D01*
X140755523Y-92649952D01*
X140850761Y-92745190D01*
X140898380Y-92888047D01*
X140898380Y-92983285D01*
X139898380Y-91649952D02*
X139898380Y-92126142D01*
X140374571Y-92173761D01*
X140326952Y-92126142D01*
X140279333Y-92030904D01*
X140279333Y-91792809D01*
X140326952Y-91697571D01*
X140374571Y-91649952D01*
X140469809Y-91602333D01*
X140707904Y-91602333D01*
X140803142Y-91649952D01*
X140850761Y-91697571D01*
X140898380Y-91792809D01*
X140898380Y-92030904D01*
X140850761Y-92126142D01*
X140803142Y-92173761D01*
%TO.C,C28*%
X135807142Y-70092857D02*
X135854761Y-70140476D01*
X135902380Y-70283333D01*
X135902380Y-70378571D01*
X135854761Y-70521428D01*
X135759523Y-70616666D01*
X135664285Y-70664285D01*
X135473809Y-70711904D01*
X135330952Y-70711904D01*
X135140476Y-70664285D01*
X135045238Y-70616666D01*
X134950000Y-70521428D01*
X134902380Y-70378571D01*
X134902380Y-70283333D01*
X134950000Y-70140476D01*
X134997619Y-70092857D01*
X134997619Y-69711904D02*
X134950000Y-69664285D01*
X134902380Y-69569047D01*
X134902380Y-69330952D01*
X134950000Y-69235714D01*
X134997619Y-69188095D01*
X135092857Y-69140476D01*
X135188095Y-69140476D01*
X135330952Y-69188095D01*
X135902380Y-69759523D01*
X135902380Y-69140476D01*
X135330952Y-68569047D02*
X135283333Y-68664285D01*
X135235714Y-68711904D01*
X135140476Y-68759523D01*
X135092857Y-68759523D01*
X134997619Y-68711904D01*
X134950000Y-68664285D01*
X134902380Y-68569047D01*
X134902380Y-68378571D01*
X134950000Y-68283333D01*
X134997619Y-68235714D01*
X135092857Y-68188095D01*
X135140476Y-68188095D01*
X135235714Y-68235714D01*
X135283333Y-68283333D01*
X135330952Y-68378571D01*
X135330952Y-68569047D01*
X135378571Y-68664285D01*
X135426190Y-68711904D01*
X135521428Y-68759523D01*
X135711904Y-68759523D01*
X135807142Y-68711904D01*
X135854761Y-68664285D01*
X135902380Y-68569047D01*
X135902380Y-68378571D01*
X135854761Y-68283333D01*
X135807142Y-68235714D01*
X135711904Y-68188095D01*
X135521428Y-68188095D01*
X135426190Y-68235714D01*
X135378571Y-68283333D01*
X135330952Y-68378571D01*
%TO.C,JS2*%
X115164076Y-74424780D02*
X115164076Y-75139066D01*
X115116457Y-75281923D01*
X115021219Y-75377161D01*
X114878361Y-75424780D01*
X114783123Y-75424780D01*
X115592647Y-75377161D02*
X115735504Y-75424780D01*
X115973600Y-75424780D01*
X116068838Y-75377161D01*
X116116457Y-75329542D01*
X116164076Y-75234304D01*
X116164076Y-75139066D01*
X116116457Y-75043828D01*
X116068838Y-74996209D01*
X115973600Y-74948590D01*
X115783123Y-74900971D01*
X115687885Y-74853352D01*
X115640266Y-74805733D01*
X115592647Y-74710495D01*
X115592647Y-74615257D01*
X115640266Y-74520019D01*
X115687885Y-74472400D01*
X115783123Y-74424780D01*
X116021219Y-74424780D01*
X116164076Y-74472400D01*
X116545028Y-74520019D02*
X116592647Y-74472400D01*
X116687885Y-74424780D01*
X116925980Y-74424780D01*
X117021219Y-74472400D01*
X117068838Y-74520019D01*
X117116457Y-74615257D01*
X117116457Y-74710495D01*
X117068838Y-74853352D01*
X116497409Y-75424780D01*
X117116457Y-75424780D01*
%TO.C,J8*%
X118455666Y-126579380D02*
X118455666Y-127293666D01*
X118408047Y-127436523D01*
X118312809Y-127531761D01*
X118169952Y-127579380D01*
X118074714Y-127579380D01*
X119074714Y-127007952D02*
X118979476Y-126960333D01*
X118931857Y-126912714D01*
X118884238Y-126817476D01*
X118884238Y-126769857D01*
X118931857Y-126674619D01*
X118979476Y-126627000D01*
X119074714Y-126579380D01*
X119265190Y-126579380D01*
X119360428Y-126627000D01*
X119408047Y-126674619D01*
X119455666Y-126769857D01*
X119455666Y-126817476D01*
X119408047Y-126912714D01*
X119360428Y-126960333D01*
X119265190Y-127007952D01*
X119074714Y-127007952D01*
X118979476Y-127055571D01*
X118931857Y-127103190D01*
X118884238Y-127198428D01*
X118884238Y-127388904D01*
X118931857Y-127484142D01*
X118979476Y-127531761D01*
X119074714Y-127579380D01*
X119265190Y-127579380D01*
X119360428Y-127531761D01*
X119408047Y-127484142D01*
X119455666Y-127388904D01*
X119455666Y-127198428D01*
X119408047Y-127103190D01*
X119360428Y-127055571D01*
X119265190Y-127007952D01*
%TO.C,U25*%
X84332380Y-134842095D02*
X85141904Y-134842095D01*
X85237142Y-134794476D01*
X85284761Y-134746857D01*
X85332380Y-134651619D01*
X85332380Y-134461142D01*
X85284761Y-134365904D01*
X85237142Y-134318285D01*
X85141904Y-134270666D01*
X84332380Y-134270666D01*
X84427619Y-133842095D02*
X84380000Y-133794476D01*
X84332380Y-133699238D01*
X84332380Y-133461142D01*
X84380000Y-133365904D01*
X84427619Y-133318285D01*
X84522857Y-133270666D01*
X84618095Y-133270666D01*
X84760952Y-133318285D01*
X85332380Y-133889714D01*
X85332380Y-133270666D01*
X84332380Y-132365904D02*
X84332380Y-132842095D01*
X84808571Y-132889714D01*
X84760952Y-132842095D01*
X84713333Y-132746857D01*
X84713333Y-132508761D01*
X84760952Y-132413523D01*
X84808571Y-132365904D01*
X84903809Y-132318285D01*
X85141904Y-132318285D01*
X85237142Y-132365904D01*
X85284761Y-132413523D01*
X85332380Y-132508761D01*
X85332380Y-132746857D01*
X85284761Y-132842095D01*
X85237142Y-132889714D01*
%TO.C,U24*%
X79820380Y-130778095D02*
X80629904Y-130778095D01*
X80725142Y-130730476D01*
X80772761Y-130682857D01*
X80820380Y-130587619D01*
X80820380Y-130397142D01*
X80772761Y-130301904D01*
X80725142Y-130254285D01*
X80629904Y-130206666D01*
X79820380Y-130206666D01*
X79915619Y-129778095D02*
X79868000Y-129730476D01*
X79820380Y-129635238D01*
X79820380Y-129397142D01*
X79868000Y-129301904D01*
X79915619Y-129254285D01*
X80010857Y-129206666D01*
X80106095Y-129206666D01*
X80248952Y-129254285D01*
X80820380Y-129825714D01*
X80820380Y-129206666D01*
X80153714Y-128349523D02*
X80820380Y-128349523D01*
X79772761Y-128587619D02*
X80487047Y-128825714D01*
X80487047Y-128206666D01*
%TO.C,U23*%
X105668380Y-134842095D02*
X106477904Y-134842095D01*
X106573142Y-134794476D01*
X106620761Y-134746857D01*
X106668380Y-134651619D01*
X106668380Y-134461142D01*
X106620761Y-134365904D01*
X106573142Y-134318285D01*
X106477904Y-134270666D01*
X105668380Y-134270666D01*
X105763619Y-133842095D02*
X105716000Y-133794476D01*
X105668380Y-133699238D01*
X105668380Y-133461142D01*
X105716000Y-133365904D01*
X105763619Y-133318285D01*
X105858857Y-133270666D01*
X105954095Y-133270666D01*
X106096952Y-133318285D01*
X106668380Y-133889714D01*
X106668380Y-133270666D01*
X105668380Y-132937333D02*
X105668380Y-132318285D01*
X106049333Y-132651619D01*
X106049333Y-132508761D01*
X106096952Y-132413523D01*
X106144571Y-132365904D01*
X106239809Y-132318285D01*
X106477904Y-132318285D01*
X106573142Y-132365904D01*
X106620761Y-132413523D01*
X106668380Y-132508761D01*
X106668380Y-132794476D01*
X106620761Y-132889714D01*
X106573142Y-132937333D01*
%TO.C,U22*%
X99632380Y-130772095D02*
X100441904Y-130772095D01*
X100537142Y-130724476D01*
X100584761Y-130676857D01*
X100632380Y-130581619D01*
X100632380Y-130391142D01*
X100584761Y-130295904D01*
X100537142Y-130248285D01*
X100441904Y-130200666D01*
X99632380Y-130200666D01*
X99727619Y-129772095D02*
X99680000Y-129724476D01*
X99632380Y-129629238D01*
X99632380Y-129391142D01*
X99680000Y-129295904D01*
X99727619Y-129248285D01*
X99822857Y-129200666D01*
X99918095Y-129200666D01*
X100060952Y-129248285D01*
X100632380Y-129819714D01*
X100632380Y-129200666D01*
X99727619Y-128819714D02*
X99680000Y-128772095D01*
X99632380Y-128676857D01*
X99632380Y-128438761D01*
X99680000Y-128343523D01*
X99727619Y-128295904D01*
X99822857Y-128248285D01*
X99918095Y-128248285D01*
X100060952Y-128295904D01*
X100632380Y-128867333D01*
X100632380Y-128248285D01*
%TO.C,U21*%
X78824180Y-121368895D02*
X79633704Y-121368895D01*
X79728942Y-121321276D01*
X79776561Y-121273657D01*
X79824180Y-121178419D01*
X79824180Y-120987942D01*
X79776561Y-120892704D01*
X79728942Y-120845085D01*
X79633704Y-120797466D01*
X78824180Y-120797466D01*
X78919419Y-120368895D02*
X78871800Y-120321276D01*
X78824180Y-120226038D01*
X78824180Y-119987942D01*
X78871800Y-119892704D01*
X78919419Y-119845085D01*
X79014657Y-119797466D01*
X79109895Y-119797466D01*
X79252752Y-119845085D01*
X79824180Y-120416514D01*
X79824180Y-119797466D01*
X79824180Y-118845085D02*
X79824180Y-119416514D01*
X79824180Y-119130800D02*
X78824180Y-119130800D01*
X78967038Y-119226038D01*
X79062276Y-119321276D01*
X79109895Y-119416514D01*
%TO.C,U10*%
X98712380Y-121380095D02*
X99521904Y-121380095D01*
X99617142Y-121332476D01*
X99664761Y-121284857D01*
X99712380Y-121189619D01*
X99712380Y-120999142D01*
X99664761Y-120903904D01*
X99617142Y-120856285D01*
X99521904Y-120808666D01*
X98712380Y-120808666D01*
X99712380Y-119808666D02*
X99712380Y-120380095D01*
X99712380Y-120094380D02*
X98712380Y-120094380D01*
X98855238Y-120189619D01*
X98950476Y-120284857D01*
X98998095Y-120380095D01*
X98712380Y-119189619D02*
X98712380Y-119094380D01*
X98760000Y-118999142D01*
X98807619Y-118951523D01*
X98902857Y-118903904D01*
X99093333Y-118856285D01*
X99331428Y-118856285D01*
X99521904Y-118903904D01*
X99617142Y-118951523D01*
X99664761Y-118999142D01*
X99712380Y-119094380D01*
X99712380Y-119189619D01*
X99664761Y-119284857D01*
X99617142Y-119332476D01*
X99521904Y-119380095D01*
X99331428Y-119427714D01*
X99093333Y-119427714D01*
X98902857Y-119380095D01*
X98807619Y-119332476D01*
X98760000Y-119284857D01*
X98712380Y-119189619D01*
%TO.C,J14*%
X76712380Y-143049523D02*
X77426666Y-143049523D01*
X77569523Y-143097142D01*
X77664761Y-143192380D01*
X77712380Y-143335238D01*
X77712380Y-143430476D01*
X77712380Y-142049523D02*
X77712380Y-142620952D01*
X77712380Y-142335238D02*
X76712380Y-142335238D01*
X76855238Y-142430476D01*
X76950476Y-142525714D01*
X76998095Y-142620952D01*
X77045714Y-141192380D02*
X77712380Y-141192380D01*
X76664761Y-141430476D02*
X77379047Y-141668571D01*
X77379047Y-141049523D01*
%TO.C,J13*%
X92206380Y-143049523D02*
X92920666Y-143049523D01*
X93063523Y-143097142D01*
X93158761Y-143192380D01*
X93206380Y-143335238D01*
X93206380Y-143430476D01*
X93206380Y-142049523D02*
X93206380Y-142620952D01*
X93206380Y-142335238D02*
X92206380Y-142335238D01*
X92349238Y-142430476D01*
X92444476Y-142525714D01*
X92492095Y-142620952D01*
X92206380Y-141716190D02*
X92206380Y-141097142D01*
X92587333Y-141430476D01*
X92587333Y-141287619D01*
X92634952Y-141192380D01*
X92682571Y-141144761D01*
X92777809Y-141097142D01*
X93015904Y-141097142D01*
X93111142Y-141144761D01*
X93158761Y-141192380D01*
X93206380Y-141287619D01*
X93206380Y-141573333D01*
X93158761Y-141668571D01*
X93111142Y-141716190D01*
%TO.C,J9*%
X108208380Y-142547933D02*
X108922666Y-142547933D01*
X109065523Y-142595552D01*
X109160761Y-142690790D01*
X109208380Y-142833647D01*
X109208380Y-142928885D01*
X109208380Y-142024123D02*
X109208380Y-141833647D01*
X109160761Y-141738409D01*
X109113142Y-141690790D01*
X108970285Y-141595552D01*
X108779809Y-141547933D01*
X108398857Y-141547933D01*
X108303619Y-141595552D01*
X108256000Y-141643171D01*
X108208380Y-141738409D01*
X108208380Y-141928885D01*
X108256000Y-142024123D01*
X108303619Y-142071742D01*
X108398857Y-142119361D01*
X108636952Y-142119361D01*
X108732190Y-142071742D01*
X108779809Y-142024123D01*
X108827428Y-141928885D01*
X108827428Y-141738409D01*
X108779809Y-141643171D01*
X108732190Y-141595552D01*
X108636952Y-141547933D01*
%TO.C,C27*%
X226814142Y-98092142D02*
X226766523Y-98139761D01*
X226623666Y-98187380D01*
X226528428Y-98187380D01*
X226385571Y-98139761D01*
X226290333Y-98044523D01*
X226242714Y-97949285D01*
X226195095Y-97758809D01*
X226195095Y-97615952D01*
X226242714Y-97425476D01*
X226290333Y-97330238D01*
X226385571Y-97235000D01*
X226528428Y-97187380D01*
X226623666Y-97187380D01*
X226766523Y-97235000D01*
X226814142Y-97282619D01*
X227195095Y-97282619D02*
X227242714Y-97235000D01*
X227337952Y-97187380D01*
X227576047Y-97187380D01*
X227671285Y-97235000D01*
X227718904Y-97282619D01*
X227766523Y-97377857D01*
X227766523Y-97473095D01*
X227718904Y-97615952D01*
X227147476Y-98187380D01*
X227766523Y-98187380D01*
X228099857Y-97187380D02*
X228766523Y-97187380D01*
X228337952Y-98187380D01*
%TO.C,J7*%
X158010266Y-70958790D02*
X158010266Y-71673076D01*
X157962647Y-71815933D01*
X157867409Y-71911171D01*
X157724552Y-71958790D01*
X157629314Y-71958790D01*
X158391219Y-70958790D02*
X159057885Y-70958790D01*
X158629314Y-71958790D01*
X154105504Y-70958790D02*
X154105504Y-71673076D01*
X154057885Y-71815933D01*
X153962647Y-71911171D01*
X153819790Y-71958790D01*
X153724552Y-71958790D01*
X155105504Y-71958790D02*
X154534076Y-71958790D01*
X154819790Y-71958790D02*
X154819790Y-70958790D01*
X154724552Y-71101648D01*
X154629314Y-71196886D01*
X154534076Y-71244505D01*
X155867409Y-71434981D02*
X156010266Y-71482600D01*
X156057885Y-71530219D01*
X156105504Y-71625457D01*
X156105504Y-71768314D01*
X156057885Y-71863552D01*
X156010266Y-71911171D01*
X155915028Y-71958790D01*
X155534076Y-71958790D01*
X155534076Y-70958790D01*
X155867409Y-70958790D01*
X155962647Y-71006410D01*
X156010266Y-71054029D01*
X156057885Y-71149267D01*
X156057885Y-71244505D01*
X156010266Y-71339743D01*
X155962647Y-71387362D01*
X155867409Y-71434981D01*
X155534076Y-71434981D01*
X157057885Y-71958790D02*
X156486457Y-71958790D01*
X156772171Y-71958790D02*
X156772171Y-70958790D01*
X156676933Y-71101648D01*
X156581695Y-71196886D01*
X156486457Y-71244505D01*
X157438838Y-71054029D02*
X157486457Y-71006410D01*
X157581695Y-70958790D01*
X157819790Y-70958790D01*
X157915028Y-71006410D01*
X157962647Y-71054029D01*
X158010266Y-71149267D01*
X158010266Y-71244505D01*
X157962647Y-71387362D01*
X157391219Y-71958790D01*
X158010266Y-71958790D01*
X158962647Y-71958790D02*
X158391219Y-71958790D01*
X158676933Y-71958790D02*
X158676933Y-70958790D01*
X158581695Y-71101648D01*
X158486457Y-71196886D01*
X158391219Y-71244505D01*
X159915028Y-71958790D02*
X159343600Y-71958790D01*
X159629314Y-71958790D02*
X159629314Y-70958790D01*
X159534076Y-71101648D01*
X159438838Y-71196886D01*
X159343600Y-71244505D01*
X160915028Y-71863552D02*
X160867409Y-71911171D01*
X160724552Y-71958790D01*
X160629314Y-71958790D01*
X160486457Y-71911171D01*
X160391219Y-71815933D01*
X160343600Y-71720695D01*
X160295980Y-71530219D01*
X160295980Y-71387362D01*
X160343600Y-71196886D01*
X160391219Y-71101648D01*
X160486457Y-71006410D01*
X160629314Y-70958790D01*
X160724552Y-70958790D01*
X160867409Y-71006410D01*
X160915028Y-71054029D01*
X161915028Y-71863552D02*
X161867409Y-71911171D01*
X161724552Y-71958790D01*
X161629314Y-71958790D01*
X161486457Y-71911171D01*
X161391219Y-71815933D01*
X161343600Y-71720695D01*
X161295980Y-71530219D01*
X161295980Y-71387362D01*
X161343600Y-71196886D01*
X161391219Y-71101648D01*
X161486457Y-71006410D01*
X161629314Y-70958790D01*
X161724552Y-70958790D01*
X161867409Y-71006410D01*
X161915028Y-71054029D01*
X162343600Y-71958790D02*
X162343600Y-70958790D01*
X162581695Y-70958790D01*
X162724552Y-71006410D01*
X162819790Y-71101648D01*
X162867409Y-71196886D01*
X162915028Y-71387362D01*
X162915028Y-71530219D01*
X162867409Y-71720695D01*
X162819790Y-71815933D01*
X162724552Y-71911171D01*
X162581695Y-71958790D01*
X162343600Y-71958790D01*
X162153600Y-73518780D02*
X162153600Y-73756876D01*
X161915504Y-73661638D02*
X162153600Y-73756876D01*
X162391695Y-73661638D01*
X162010742Y-73947352D02*
X162153600Y-73756876D01*
X162296457Y-73947352D01*
%TO.C,C1*%
X162195142Y-89681666D02*
X162242761Y-89729285D01*
X162290380Y-89872142D01*
X162290380Y-89967380D01*
X162242761Y-90110238D01*
X162147523Y-90205476D01*
X162052285Y-90253095D01*
X161861809Y-90300714D01*
X161718952Y-90300714D01*
X161528476Y-90253095D01*
X161433238Y-90205476D01*
X161338000Y-90110238D01*
X161290380Y-89967380D01*
X161290380Y-89872142D01*
X161338000Y-89729285D01*
X161385619Y-89681666D01*
X162290380Y-88729285D02*
X162290380Y-89300714D01*
X162290380Y-89015000D02*
X161290380Y-89015000D01*
X161433238Y-89110238D01*
X161528476Y-89205476D01*
X161576095Y-89300714D01*
%TO.C,J10*%
X145802380Y-125809523D02*
X146516666Y-125809523D01*
X146659523Y-125857142D01*
X146754761Y-125952380D01*
X146802380Y-126095238D01*
X146802380Y-126190476D01*
X146802380Y-124809523D02*
X146802380Y-125380952D01*
X146802380Y-125095238D02*
X145802380Y-125095238D01*
X145945238Y-125190476D01*
X146040476Y-125285714D01*
X146088095Y-125380952D01*
X145802380Y-124190476D02*
X145802380Y-124095238D01*
X145850000Y-124000000D01*
X145897619Y-123952380D01*
X145992857Y-123904761D01*
X146183333Y-123857142D01*
X146421428Y-123857142D01*
X146611904Y-123904761D01*
X146707142Y-123952380D01*
X146754761Y-124000000D01*
X146802380Y-124095238D01*
X146802380Y-124190476D01*
X146754761Y-124285714D01*
X146707142Y-124333333D01*
X146611904Y-124380952D01*
X146421428Y-124428571D01*
X146183333Y-124428571D01*
X145992857Y-124380952D01*
X145897619Y-124333333D01*
X145850000Y-124285714D01*
X145802380Y-124190476D01*
%TO.C,U9*%
X138665580Y-78130304D02*
X139475104Y-78130304D01*
X139570342Y-78082685D01*
X139617961Y-78035066D01*
X139665580Y-77939828D01*
X139665580Y-77749352D01*
X139617961Y-77654114D01*
X139570342Y-77606495D01*
X139475104Y-77558876D01*
X138665580Y-77558876D01*
X139665580Y-77035066D02*
X139665580Y-76844590D01*
X139617961Y-76749352D01*
X139570342Y-76701733D01*
X139427485Y-76606495D01*
X139237009Y-76558876D01*
X138856057Y-76558876D01*
X138760819Y-76606495D01*
X138713200Y-76654114D01*
X138665580Y-76749352D01*
X138665580Y-76939828D01*
X138713200Y-77035066D01*
X138760819Y-77082685D01*
X138856057Y-77130304D01*
X139094152Y-77130304D01*
X139189390Y-77082685D01*
X139237009Y-77035066D01*
X139284628Y-76939828D01*
X139284628Y-76749352D01*
X139237009Y-76654114D01*
X139189390Y-76606495D01*
X139094152Y-76558876D01*
%TO.C,U8*%
X139716380Y-77068304D02*
X140525904Y-77068304D01*
X140621142Y-77020685D01*
X140668761Y-76973066D01*
X140716380Y-76877828D01*
X140716380Y-76687352D01*
X140668761Y-76592114D01*
X140621142Y-76544495D01*
X140525904Y-76496876D01*
X139716380Y-76496876D01*
X140144952Y-75877828D02*
X140097333Y-75973066D01*
X140049714Y-76020685D01*
X139954476Y-76068304D01*
X139906857Y-76068304D01*
X139811619Y-76020685D01*
X139764000Y-75973066D01*
X139716380Y-75877828D01*
X139716380Y-75687352D01*
X139764000Y-75592114D01*
X139811619Y-75544495D01*
X139906857Y-75496876D01*
X139954476Y-75496876D01*
X140049714Y-75544495D01*
X140097333Y-75592114D01*
X140144952Y-75687352D01*
X140144952Y-75877828D01*
X140192571Y-75973066D01*
X140240190Y-76020685D01*
X140335428Y-76068304D01*
X140525904Y-76068304D01*
X140621142Y-76020685D01*
X140668761Y-75973066D01*
X140716380Y-75877828D01*
X140716380Y-75687352D01*
X140668761Y-75592114D01*
X140621142Y-75544495D01*
X140525904Y-75496876D01*
X140335428Y-75496876D01*
X140240190Y-75544495D01*
X140192571Y-75592114D01*
X140144952Y-75687352D01*
%TO.C,J1*%
X140941466Y-72575180D02*
X140941466Y-73289466D01*
X140893847Y-73432323D01*
X140798609Y-73527561D01*
X140655752Y-73575180D01*
X140560514Y-73575180D01*
X141941466Y-73575180D02*
X141370038Y-73575180D01*
X141655752Y-73575180D02*
X141655752Y-72575180D01*
X141560514Y-72718038D01*
X141465276Y-72813276D01*
X141370038Y-72860895D01*
%TO.C,C8*%
X132916142Y-81639666D02*
X132963761Y-81687285D01*
X133011380Y-81830142D01*
X133011380Y-81925380D01*
X132963761Y-82068238D01*
X132868523Y-82163476D01*
X132773285Y-82211095D01*
X132582809Y-82258714D01*
X132439952Y-82258714D01*
X132249476Y-82211095D01*
X132154238Y-82163476D01*
X132059000Y-82068238D01*
X132011380Y-81925380D01*
X132011380Y-81830142D01*
X132059000Y-81687285D01*
X132106619Y-81639666D01*
X132439952Y-81068238D02*
X132392333Y-81163476D01*
X132344714Y-81211095D01*
X132249476Y-81258714D01*
X132201857Y-81258714D01*
X132106619Y-81211095D01*
X132059000Y-81163476D01*
X132011380Y-81068238D01*
X132011380Y-80877761D01*
X132059000Y-80782523D01*
X132106619Y-80734904D01*
X132201857Y-80687285D01*
X132249476Y-80687285D01*
X132344714Y-80734904D01*
X132392333Y-80782523D01*
X132439952Y-80877761D01*
X132439952Y-81068238D01*
X132487571Y-81163476D01*
X132535190Y-81211095D01*
X132630428Y-81258714D01*
X132820904Y-81258714D01*
X132916142Y-81211095D01*
X132963761Y-81163476D01*
X133011380Y-81068238D01*
X133011380Y-80877761D01*
X132963761Y-80782523D01*
X132916142Y-80734904D01*
X132820904Y-80687285D01*
X132630428Y-80687285D01*
X132535190Y-80734904D01*
X132487571Y-80782523D01*
X132439952Y-80877761D01*
%TO.C,C6*%
X135075142Y-81700666D02*
X135122761Y-81748285D01*
X135170380Y-81891142D01*
X135170380Y-81986380D01*
X135122761Y-82129238D01*
X135027523Y-82224476D01*
X134932285Y-82272095D01*
X134741809Y-82319714D01*
X134598952Y-82319714D01*
X134408476Y-82272095D01*
X134313238Y-82224476D01*
X134218000Y-82129238D01*
X134170380Y-81986380D01*
X134170380Y-81891142D01*
X134218000Y-81748285D01*
X134265619Y-81700666D01*
X134170380Y-80843523D02*
X134170380Y-81034000D01*
X134218000Y-81129238D01*
X134265619Y-81176857D01*
X134408476Y-81272095D01*
X134598952Y-81319714D01*
X134979904Y-81319714D01*
X135075142Y-81272095D01*
X135122761Y-81224476D01*
X135170380Y-81129238D01*
X135170380Y-80938761D01*
X135122761Y-80843523D01*
X135075142Y-80795904D01*
X134979904Y-80748285D01*
X134741809Y-80748285D01*
X134646571Y-80795904D01*
X134598952Y-80843523D01*
X134551333Y-80938761D01*
X134551333Y-81129238D01*
X134598952Y-81224476D01*
X134646571Y-81272095D01*
X134741809Y-81319714D01*
%TO.C,C5*%
X147267142Y-66333666D02*
X147314761Y-66381285D01*
X147362380Y-66524142D01*
X147362380Y-66619380D01*
X147314761Y-66762238D01*
X147219523Y-66857476D01*
X147124285Y-66905095D01*
X146933809Y-66952714D01*
X146790952Y-66952714D01*
X146600476Y-66905095D01*
X146505238Y-66857476D01*
X146410000Y-66762238D01*
X146362380Y-66619380D01*
X146362380Y-66524142D01*
X146410000Y-66381285D01*
X146457619Y-66333666D01*
X146362380Y-65428904D02*
X146362380Y-65905095D01*
X146838571Y-65952714D01*
X146790952Y-65905095D01*
X146743333Y-65809857D01*
X146743333Y-65571761D01*
X146790952Y-65476523D01*
X146838571Y-65428904D01*
X146933809Y-65381285D01*
X147171904Y-65381285D01*
X147267142Y-65428904D01*
X147314761Y-65476523D01*
X147362380Y-65571761D01*
X147362380Y-65809857D01*
X147314761Y-65905095D01*
X147267142Y-65952714D01*
%TO.C,C4*%
X137234142Y-81761666D02*
X137281761Y-81809285D01*
X137329380Y-81952142D01*
X137329380Y-82047380D01*
X137281761Y-82190238D01*
X137186523Y-82285476D01*
X137091285Y-82333095D01*
X136900809Y-82380714D01*
X136757952Y-82380714D01*
X136567476Y-82333095D01*
X136472238Y-82285476D01*
X136377000Y-82190238D01*
X136329380Y-82047380D01*
X136329380Y-81952142D01*
X136377000Y-81809285D01*
X136424619Y-81761666D01*
X136662714Y-80904523D02*
X137329380Y-80904523D01*
X136281761Y-81142619D02*
X136996047Y-81380714D01*
X136996047Y-80761666D01*
%TO.C,C3*%
X150627142Y-69950666D02*
X150674761Y-69998285D01*
X150722380Y-70141142D01*
X150722380Y-70236380D01*
X150674761Y-70379238D01*
X150579523Y-70474476D01*
X150484285Y-70522095D01*
X150293809Y-70569714D01*
X150150952Y-70569714D01*
X149960476Y-70522095D01*
X149865238Y-70474476D01*
X149770000Y-70379238D01*
X149722380Y-70236380D01*
X149722380Y-70141142D01*
X149770000Y-69998285D01*
X149817619Y-69950666D01*
X149722380Y-69617333D02*
X149722380Y-68998285D01*
X150103333Y-69331619D01*
X150103333Y-69188761D01*
X150150952Y-69093523D01*
X150198571Y-69045904D01*
X150293809Y-68998285D01*
X150531904Y-68998285D01*
X150627142Y-69045904D01*
X150674761Y-69093523D01*
X150722380Y-69188761D01*
X150722380Y-69474476D01*
X150674761Y-69569714D01*
X150627142Y-69617333D01*
%TO.C,U20*%
X89805404Y-104397980D02*
X89805404Y-105207504D01*
X89853023Y-105302742D01*
X89900642Y-105350361D01*
X89995880Y-105397980D01*
X90186357Y-105397980D01*
X90281595Y-105350361D01*
X90329214Y-105302742D01*
X90376833Y-105207504D01*
X90376833Y-104397980D01*
X90805404Y-104493219D02*
X90853023Y-104445600D01*
X90948261Y-104397980D01*
X91186357Y-104397980D01*
X91281595Y-104445600D01*
X91329214Y-104493219D01*
X91376833Y-104588457D01*
X91376833Y-104683695D01*
X91329214Y-104826552D01*
X90757785Y-105397980D01*
X91376833Y-105397980D01*
X91995880Y-104397980D02*
X92091119Y-104397980D01*
X92186357Y-104445600D01*
X92233976Y-104493219D01*
X92281595Y-104588457D01*
X92329214Y-104778933D01*
X92329214Y-105017028D01*
X92281595Y-105207504D01*
X92233976Y-105302742D01*
X92186357Y-105350361D01*
X92091119Y-105397980D01*
X91995880Y-105397980D01*
X91900642Y-105350361D01*
X91853023Y-105302742D01*
X91805404Y-105207504D01*
X91757785Y-105017028D01*
X91757785Y-104778933D01*
X91805404Y-104588457D01*
X91853023Y-104493219D01*
X91900642Y-104445600D01*
X91995880Y-104397980D01*
%TO.C,U6*%
X207579980Y-132283104D02*
X208389504Y-132283104D01*
X208484742Y-132235485D01*
X208532361Y-132187866D01*
X208579980Y-132092628D01*
X208579980Y-131902152D01*
X208532361Y-131806914D01*
X208484742Y-131759295D01*
X208389504Y-131711676D01*
X207579980Y-131711676D01*
X207579980Y-130806914D02*
X207579980Y-130997390D01*
X207627600Y-131092628D01*
X207675219Y-131140247D01*
X207818076Y-131235485D01*
X208008552Y-131283104D01*
X208389504Y-131283104D01*
X208484742Y-131235485D01*
X208532361Y-131187866D01*
X208579980Y-131092628D01*
X208579980Y-130902152D01*
X208532361Y-130806914D01*
X208484742Y-130759295D01*
X208389504Y-130711676D01*
X208151409Y-130711676D01*
X208056171Y-130759295D01*
X208008552Y-130806914D01*
X207960933Y-130902152D01*
X207960933Y-131092628D01*
X208008552Y-131187866D01*
X208056171Y-131235485D01*
X208151409Y-131283104D01*
X182251409Y-138816438D02*
X182289504Y-138702152D01*
X182289504Y-138511676D01*
X182251409Y-138435485D01*
X182213314Y-138397390D01*
X182137123Y-138359295D01*
X182060933Y-138359295D01*
X181984742Y-138397390D01*
X181946647Y-138435485D01*
X181908552Y-138511676D01*
X181870457Y-138664057D01*
X181832361Y-138740247D01*
X181794266Y-138778342D01*
X181718076Y-138816438D01*
X181641885Y-138816438D01*
X181565695Y-138778342D01*
X181527600Y-138740247D01*
X181489504Y-138664057D01*
X181489504Y-138473580D01*
X181527600Y-138359295D01*
X181489504Y-138092628D02*
X182289504Y-137902152D01*
X181718076Y-137749771D01*
X182289504Y-137597390D01*
X181489504Y-137406914D01*
X182289504Y-137102152D02*
X181489504Y-137102152D01*
X181489504Y-136911676D01*
X181527600Y-136797390D01*
X181603790Y-136721200D01*
X181679980Y-136683104D01*
X181832361Y-136645009D01*
X181946647Y-136645009D01*
X182099028Y-136683104D01*
X182175219Y-136721200D01*
X182251409Y-136797390D01*
X182289504Y-136911676D01*
X182289504Y-137102152D01*
X182289504Y-136302152D02*
X181489504Y-136302152D01*
X181489504Y-135768819D02*
X181489504Y-135616438D01*
X181527600Y-135540247D01*
X181603790Y-135464057D01*
X181756171Y-135425961D01*
X182022838Y-135425961D01*
X182175219Y-135464057D01*
X182251409Y-135540247D01*
X182289504Y-135616438D01*
X182289504Y-135768819D01*
X182251409Y-135845009D01*
X182175219Y-135921200D01*
X182022838Y-135959295D01*
X181756171Y-135959295D01*
X181603790Y-135921200D01*
X181527600Y-135845009D01*
X181489504Y-135768819D01*
X182251409Y-127630723D02*
X182289504Y-127516438D01*
X182289504Y-127325961D01*
X182251409Y-127249771D01*
X182213314Y-127211676D01*
X182137123Y-127173580D01*
X182060933Y-127173580D01*
X181984742Y-127211676D01*
X181946647Y-127249771D01*
X181908552Y-127325961D01*
X181870457Y-127478342D01*
X181832361Y-127554533D01*
X181794266Y-127592628D01*
X181718076Y-127630723D01*
X181641885Y-127630723D01*
X181565695Y-127592628D01*
X181527600Y-127554533D01*
X181489504Y-127478342D01*
X181489504Y-127287866D01*
X181527600Y-127173580D01*
X181489504Y-126906914D02*
X182289504Y-126716438D01*
X181718076Y-126564057D01*
X182289504Y-126411676D01*
X181489504Y-126221200D01*
X182213314Y-125459295D02*
X182251409Y-125497390D01*
X182289504Y-125611676D01*
X182289504Y-125687866D01*
X182251409Y-125802152D01*
X182175219Y-125878342D01*
X182099028Y-125916438D01*
X181946647Y-125954533D01*
X181832361Y-125954533D01*
X181679980Y-125916438D01*
X181603790Y-125878342D01*
X181527600Y-125802152D01*
X181489504Y-125687866D01*
X181489504Y-125611676D01*
X181527600Y-125497390D01*
X181565695Y-125459295D01*
X182289504Y-124735485D02*
X182289504Y-125116438D01*
X181489504Y-125116438D01*
X182289504Y-124468819D02*
X181489504Y-124468819D01*
X182289504Y-124011676D02*
X181832361Y-124354533D01*
X181489504Y-124011676D02*
X181946647Y-124468819D01*
X213386635Y-143672797D02*
X213656009Y-143942171D01*
X213171136Y-143780546D02*
X213925383Y-143403423D01*
X213548259Y-144157670D01*
X214571880Y-144103795D02*
X214544943Y-144022983D01*
X214464131Y-143942171D01*
X214356381Y-143888296D01*
X214248632Y-143888296D01*
X214167819Y-143915233D01*
X214033132Y-143996045D01*
X213952320Y-144076858D01*
X213871508Y-144211545D01*
X213844571Y-144292357D01*
X213844571Y-144400106D01*
X213898445Y-144507856D01*
X213952320Y-144561731D01*
X214060070Y-144615606D01*
X214113945Y-144615606D01*
X214302506Y-144427044D01*
X214194757Y-144319294D01*
X214302506Y-144911917D02*
X214868192Y-144346232D01*
X214625755Y-145235166D01*
X215191441Y-144669480D01*
X214895129Y-145504540D02*
X215460815Y-144938854D01*
X215595502Y-145073541D01*
X215649376Y-145181291D01*
X215649376Y-145289041D01*
X215622439Y-145369853D01*
X215541627Y-145504540D01*
X215460815Y-145585352D01*
X215326128Y-145666164D01*
X215245315Y-145693102D01*
X215137566Y-145693102D01*
X215029816Y-145639227D01*
X214895129Y-145504540D01*
X227029444Y-143607358D02*
X227002506Y-143526546D01*
X226921694Y-143445734D01*
X226813945Y-143391859D01*
X226706195Y-143391859D01*
X226625383Y-143418797D01*
X226490696Y-143499609D01*
X226409884Y-143580421D01*
X226329071Y-143715108D01*
X226302134Y-143795920D01*
X226302134Y-143903670D01*
X226356009Y-144011419D01*
X226409884Y-144065294D01*
X226517633Y-144119169D01*
X226571508Y-144119169D01*
X226760070Y-143930607D01*
X226652320Y-143822858D01*
X226760070Y-144415480D02*
X227325755Y-143849795D01*
X227083319Y-144738729D01*
X227649004Y-144173044D01*
X227352693Y-145008103D02*
X227918378Y-144442418D01*
X228053065Y-144577105D01*
X228106940Y-144684854D01*
X228106940Y-144792604D01*
X228080002Y-144873416D01*
X227999190Y-145008103D01*
X227918378Y-145088915D01*
X227783691Y-145169728D01*
X227702879Y-145196665D01*
X227595129Y-145196665D01*
X227487380Y-145142790D01*
X227352693Y-145008103D01*
X201629444Y-143607358D02*
X201602506Y-143526546D01*
X201521694Y-143445734D01*
X201413945Y-143391859D01*
X201306195Y-143391859D01*
X201225383Y-143418797D01*
X201090696Y-143499609D01*
X201009884Y-143580421D01*
X200929071Y-143715108D01*
X200902134Y-143795920D01*
X200902134Y-143903670D01*
X200956009Y-144011419D01*
X201009884Y-144065294D01*
X201117633Y-144119169D01*
X201171508Y-144119169D01*
X201360070Y-143930607D01*
X201252320Y-143822858D01*
X201360070Y-144415480D02*
X201925755Y-143849795D01*
X201683319Y-144738729D01*
X202249004Y-144173044D01*
X201952693Y-145008103D02*
X202518378Y-144442418D01*
X202653065Y-144577105D01*
X202706940Y-144684854D01*
X202706940Y-144792604D01*
X202680002Y-144873416D01*
X202599190Y-145008103D01*
X202518378Y-145088915D01*
X202383691Y-145169728D01*
X202302879Y-145196665D01*
X202195129Y-145196665D01*
X202087380Y-145142790D01*
X201952693Y-145008103D01*
X188929444Y-143607358D02*
X188902506Y-143526546D01*
X188821694Y-143445734D01*
X188713945Y-143391859D01*
X188606195Y-143391859D01*
X188525383Y-143418797D01*
X188390696Y-143499609D01*
X188309884Y-143580421D01*
X188229071Y-143715108D01*
X188202134Y-143795920D01*
X188202134Y-143903670D01*
X188256009Y-144011419D01*
X188309884Y-144065294D01*
X188417633Y-144119169D01*
X188471508Y-144119169D01*
X188660070Y-143930607D01*
X188552320Y-143822858D01*
X188660070Y-144415480D02*
X189225755Y-143849795D01*
X188983319Y-144738729D01*
X189549004Y-144173044D01*
X189252693Y-145008103D02*
X189818378Y-144442418D01*
X189953065Y-144577105D01*
X190006940Y-144684854D01*
X190006940Y-144792604D01*
X189980002Y-144873416D01*
X189899190Y-145008103D01*
X189818378Y-145088915D01*
X189683691Y-145169728D01*
X189602879Y-145196665D01*
X189495129Y-145196665D01*
X189387380Y-145142790D01*
X189252693Y-145008103D01*
X188929444Y-118007358D02*
X188902506Y-117926546D01*
X188821694Y-117845734D01*
X188713945Y-117791859D01*
X188606195Y-117791859D01*
X188525383Y-117818797D01*
X188390696Y-117899609D01*
X188309884Y-117980421D01*
X188229071Y-118115108D01*
X188202134Y-118195920D01*
X188202134Y-118303670D01*
X188256009Y-118411419D01*
X188309884Y-118465294D01*
X188417633Y-118519169D01*
X188471508Y-118519169D01*
X188660070Y-118330607D01*
X188552320Y-118222858D01*
X188660070Y-118815480D02*
X189225755Y-118249795D01*
X188983319Y-119138729D01*
X189549004Y-118573044D01*
X189252693Y-119408103D02*
X189818378Y-118842418D01*
X189953065Y-118977105D01*
X190006940Y-119084854D01*
X190006940Y-119192604D01*
X189980002Y-119273416D01*
X189899190Y-119408103D01*
X189818378Y-119488915D01*
X189683691Y-119569728D01*
X189602879Y-119596665D01*
X189495129Y-119596665D01*
X189387380Y-119542790D01*
X189252693Y-119408103D01*
X201629444Y-118007358D02*
X201602506Y-117926546D01*
X201521694Y-117845734D01*
X201413945Y-117791859D01*
X201306195Y-117791859D01*
X201225383Y-117818797D01*
X201090696Y-117899609D01*
X201009884Y-117980421D01*
X200929071Y-118115108D01*
X200902134Y-118195920D01*
X200902134Y-118303670D01*
X200956009Y-118411419D01*
X201009884Y-118465294D01*
X201117633Y-118519169D01*
X201171508Y-118519169D01*
X201360070Y-118330607D01*
X201252320Y-118222858D01*
X201360070Y-118815480D02*
X201925755Y-118249795D01*
X201683319Y-119138729D01*
X202249004Y-118573044D01*
X201952693Y-119408103D02*
X202518378Y-118842418D01*
X202653065Y-118977105D01*
X202706940Y-119084854D01*
X202706940Y-119192604D01*
X202680002Y-119273416D01*
X202599190Y-119408103D01*
X202518378Y-119488915D01*
X202383691Y-119569728D01*
X202302879Y-119596665D01*
X202195129Y-119596665D01*
X202087380Y-119542790D01*
X201952693Y-119408103D01*
X214329444Y-118007358D02*
X214302506Y-117926546D01*
X214221694Y-117845734D01*
X214113945Y-117791859D01*
X214006195Y-117791859D01*
X213925383Y-117818797D01*
X213790696Y-117899609D01*
X213709884Y-117980421D01*
X213629071Y-118115108D01*
X213602134Y-118195920D01*
X213602134Y-118303670D01*
X213656009Y-118411419D01*
X213709884Y-118465294D01*
X213817633Y-118519169D01*
X213871508Y-118519169D01*
X214060070Y-118330607D01*
X213952320Y-118222858D01*
X214060070Y-118815480D02*
X214625755Y-118249795D01*
X214383319Y-119138729D01*
X214949004Y-118573044D01*
X214652693Y-119408103D02*
X215218378Y-118842418D01*
X215353065Y-118977105D01*
X215406940Y-119084854D01*
X215406940Y-119192604D01*
X215380002Y-119273416D01*
X215299190Y-119408103D01*
X215218378Y-119488915D01*
X215083691Y-119569728D01*
X215002879Y-119596665D01*
X214895129Y-119596665D01*
X214787380Y-119542790D01*
X214652693Y-119408103D01*
X227029444Y-118007358D02*
X227002506Y-117926546D01*
X226921694Y-117845734D01*
X226813945Y-117791859D01*
X226706195Y-117791859D01*
X226625383Y-117818797D01*
X226490696Y-117899609D01*
X226409884Y-117980421D01*
X226329071Y-118115108D01*
X226302134Y-118195920D01*
X226302134Y-118303670D01*
X226356009Y-118411419D01*
X226409884Y-118465294D01*
X226517633Y-118519169D01*
X226571508Y-118519169D01*
X226760070Y-118330607D01*
X226652320Y-118222858D01*
X226760070Y-118815480D02*
X227325755Y-118249795D01*
X227083319Y-119138729D01*
X227649004Y-118573044D01*
X227352693Y-119408103D02*
X227918378Y-118842418D01*
X228053065Y-118977105D01*
X228106940Y-119084854D01*
X228106940Y-119192604D01*
X228080002Y-119273416D01*
X227999190Y-119408103D01*
X227918378Y-119488915D01*
X227783691Y-119569728D01*
X227702879Y-119596665D01*
X227595129Y-119596665D01*
X227487380Y-119542790D01*
X227352693Y-119408103D01*
X231600290Y-143474329D02*
X231223166Y-144228577D01*
X231977413Y-143851453D01*
X232085163Y-144497951D02*
X232139038Y-144605700D01*
X232139038Y-144659575D01*
X232112100Y-144740387D01*
X232031288Y-144821200D01*
X231950476Y-144848137D01*
X231896601Y-144848137D01*
X231815789Y-144821200D01*
X231600290Y-144605700D01*
X232165975Y-144040015D01*
X232354537Y-144228577D01*
X232381474Y-144309389D01*
X232381474Y-144363264D01*
X232354537Y-144444076D01*
X232300662Y-144497951D01*
X232219850Y-144524888D01*
X232165975Y-144524888D01*
X232085163Y-144497951D01*
X231896601Y-144309389D01*
X232731661Y-144605700D02*
X232273725Y-145063636D01*
X232246787Y-145144448D01*
X232246787Y-145198323D01*
X232273725Y-145279135D01*
X232381474Y-145386885D01*
X232462287Y-145413822D01*
X232516161Y-145413822D01*
X232596974Y-145386885D01*
X233054909Y-144928949D01*
X232758598Y-145710134D02*
X232812473Y-145817883D01*
X232947160Y-145952570D01*
X233027972Y-145979508D01*
X233081847Y-145979508D01*
X233162659Y-145952570D01*
X233216534Y-145898696D01*
X233243471Y-145817883D01*
X233243471Y-145764009D01*
X233216534Y-145683196D01*
X233135722Y-145548509D01*
X233108784Y-145467697D01*
X233108784Y-145413822D01*
X233135722Y-145333010D01*
X233189596Y-145279135D01*
X233270409Y-145252198D01*
X233324283Y-145252198D01*
X233405096Y-145279135D01*
X233539783Y-145413822D01*
X233593657Y-145521572D01*
X229057633Y-143441673D02*
X228680510Y-144195920D01*
X229434757Y-143818797D01*
X229057633Y-144519169D02*
X229111508Y-144626919D01*
X229246195Y-144761606D01*
X229327007Y-144788543D01*
X229380882Y-144788543D01*
X229461694Y-144761606D01*
X229515569Y-144707731D01*
X229542506Y-144626919D01*
X229542506Y-144573044D01*
X229515569Y-144492232D01*
X229434757Y-144357545D01*
X229407819Y-144276732D01*
X229407819Y-144222858D01*
X229434757Y-144142045D01*
X229488632Y-144088171D01*
X229569444Y-144061233D01*
X229623319Y-144061233D01*
X229704131Y-144088171D01*
X229838818Y-144222858D01*
X229892693Y-144330607D01*
X229973505Y-144950167D02*
X229704131Y-145219541D01*
X230081254Y-144465294D02*
X229973505Y-144950167D01*
X230458378Y-144842418D01*
X230081254Y-145542790D02*
X230135129Y-145650540D01*
X230269816Y-145785227D01*
X230350628Y-145812164D01*
X230404503Y-145812164D01*
X230485315Y-145785227D01*
X230539190Y-145731352D01*
X230566128Y-145650540D01*
X230566128Y-145596665D01*
X230539190Y-145515853D01*
X230458378Y-145381166D01*
X230431441Y-145300354D01*
X230431441Y-145246479D01*
X230458378Y-145165667D01*
X230512253Y-145111792D01*
X230593065Y-145084854D01*
X230646940Y-145084854D01*
X230727752Y-145111792D01*
X230862439Y-145246479D01*
X230916314Y-145354228D01*
X224169291Y-143443331D02*
X224519477Y-143793517D01*
X224115416Y-143820455D01*
X224196229Y-143901267D01*
X224223166Y-143982079D01*
X224223166Y-144035954D01*
X224196229Y-144116766D01*
X224061542Y-144251453D01*
X223980729Y-144278390D01*
X223926855Y-144278390D01*
X223846042Y-144251453D01*
X223684418Y-144089829D01*
X223657481Y-144009016D01*
X223657481Y-143955142D01*
X224681102Y-143955142D02*
X224303978Y-144709389D01*
X225058225Y-144332265D01*
X225192912Y-144466952D02*
X225543099Y-144817138D01*
X225139038Y-144844076D01*
X225219850Y-144924888D01*
X225246787Y-145005700D01*
X225246787Y-145059575D01*
X225219850Y-145140387D01*
X225085163Y-145275074D01*
X225004351Y-145302012D01*
X224950476Y-145302012D01*
X224869664Y-145275074D01*
X224708039Y-145113450D01*
X224681102Y-145032638D01*
X224681102Y-144978763D01*
X225031288Y-145544448D02*
X225462287Y-145975447D01*
X225947160Y-145759948D02*
X226135722Y-145948509D01*
X225920222Y-146325633D02*
X225650848Y-146056259D01*
X226216534Y-145490574D01*
X226485908Y-145759948D01*
X226162659Y-146568070D02*
X226728344Y-146002384D01*
X226485908Y-146891318D01*
X227051593Y-146325633D01*
X221637007Y-143411047D02*
X221987193Y-143761233D01*
X221583132Y-143788171D01*
X221663945Y-143868983D01*
X221690882Y-143949795D01*
X221690882Y-144003670D01*
X221663945Y-144084482D01*
X221529258Y-144219169D01*
X221448445Y-144246106D01*
X221394571Y-144246106D01*
X221313758Y-144219169D01*
X221152134Y-144057545D01*
X221125197Y-143976732D01*
X221125197Y-143922858D01*
X222148818Y-143922858D02*
X221771694Y-144677105D01*
X222525941Y-144299981D01*
X222660628Y-144434668D02*
X223010815Y-144784854D01*
X222606754Y-144811792D01*
X222687566Y-144892604D01*
X222714503Y-144973416D01*
X222714503Y-145027291D01*
X222687566Y-145108103D01*
X222552879Y-145242790D01*
X222472067Y-145269728D01*
X222418192Y-145269728D01*
X222337380Y-145242790D01*
X222175755Y-145081166D01*
X222148818Y-145000354D01*
X222148818Y-144946479D01*
X218593826Y-143675988D02*
X218863200Y-143945362D01*
X218378327Y-143783737D02*
X219132574Y-143406614D01*
X218755450Y-144160861D01*
X218944012Y-144349423D02*
X219509697Y-143783737D01*
X219644384Y-143918424D01*
X219698259Y-144026174D01*
X219698259Y-144133923D01*
X219671322Y-144214736D01*
X219590510Y-144349423D01*
X219509697Y-144430235D01*
X219375010Y-144511047D01*
X219294198Y-144537984D01*
X219186449Y-144537984D01*
X219078699Y-144484110D01*
X218944012Y-144349423D01*
X219886821Y-145184482D02*
X219832946Y-145184482D01*
X219725197Y-145130607D01*
X219671322Y-145076732D01*
X219617447Y-144968983D01*
X219617447Y-144861233D01*
X219644384Y-144780421D01*
X219725197Y-144645734D01*
X219806009Y-144564922D01*
X219940696Y-144484110D01*
X220021508Y-144457172D01*
X220129258Y-144457172D01*
X220237007Y-144511047D01*
X220290882Y-144564922D01*
X220344757Y-144672671D01*
X220344757Y-144726546D01*
X219886821Y-145399981D02*
X220317819Y-145830980D01*
X220991254Y-145265294D02*
X220614131Y-146019541D01*
X221368378Y-145642418D01*
X221314503Y-146719914D02*
X221395315Y-146261978D01*
X220991254Y-146396665D02*
X221556940Y-145830980D01*
X221772439Y-146046479D01*
X221799376Y-146127291D01*
X221799376Y-146181166D01*
X221772439Y-146261978D01*
X221691627Y-146342790D01*
X221610815Y-146369728D01*
X221556940Y-146369728D01*
X221476128Y-146342790D01*
X221260628Y-146127291D01*
X221853251Y-146666039D02*
X222041813Y-146854601D01*
X221826314Y-147231724D02*
X221556940Y-146962350D01*
X222122625Y-146396665D01*
X222391999Y-146666039D01*
X222553624Y-147366411D02*
X222365062Y-147177850D01*
X222068750Y-147474161D02*
X222634436Y-146908476D01*
X222903810Y-147177850D01*
X216881007Y-143618922D02*
X216854070Y-143538110D01*
X216773258Y-143457297D01*
X216665508Y-143403423D01*
X216557758Y-143403423D01*
X216476946Y-143430360D01*
X216342259Y-143511172D01*
X216261447Y-143591984D01*
X216180635Y-143726671D01*
X216153697Y-143807484D01*
X216153697Y-143915233D01*
X216207572Y-144022983D01*
X216261447Y-144076858D01*
X216369197Y-144130732D01*
X216423071Y-144130732D01*
X216611633Y-143942171D01*
X216503884Y-143834421D01*
X216611633Y-144427044D02*
X217177319Y-143861358D01*
X217392818Y-144076858D01*
X217419755Y-144157670D01*
X217419755Y-144211545D01*
X217392818Y-144292357D01*
X217312006Y-144373169D01*
X217231193Y-144400106D01*
X217177319Y-144400106D01*
X217096506Y-144373169D01*
X216881007Y-144157670D01*
X217662192Y-144453981D02*
X217716067Y-144453981D01*
X217796879Y-144480919D01*
X217931566Y-144615606D01*
X217958503Y-144696418D01*
X217958503Y-144750293D01*
X217931566Y-144831105D01*
X217877691Y-144884980D01*
X217769941Y-144938854D01*
X217123444Y-144938854D01*
X217473630Y-145289041D01*
X218120128Y-145289041D02*
X218093190Y-145208228D01*
X218093190Y-145154354D01*
X218120128Y-145073541D01*
X218147065Y-145046604D01*
X218227877Y-145019667D01*
X218281752Y-145019667D01*
X218362564Y-145046604D01*
X218470314Y-145154354D01*
X218497251Y-145235166D01*
X218497251Y-145289041D01*
X218470314Y-145369853D01*
X218443376Y-145396790D01*
X218362564Y-145423728D01*
X218308689Y-145423728D01*
X218227877Y-145396790D01*
X218120128Y-145289041D01*
X218039315Y-145262103D01*
X217985441Y-145262103D01*
X217904628Y-145289041D01*
X217796879Y-145396790D01*
X217769941Y-145477602D01*
X217769941Y-145531477D01*
X217796879Y-145612289D01*
X217904628Y-145720039D01*
X217985441Y-145746976D01*
X218039315Y-145746976D01*
X218120128Y-145720039D01*
X218227877Y-145612289D01*
X218254815Y-145531477D01*
X218254815Y-145477602D01*
X218227877Y-145396790D01*
X211537007Y-143618922D02*
X211510070Y-143538110D01*
X211429258Y-143457297D01*
X211321508Y-143403423D01*
X211213758Y-143403423D01*
X211132946Y-143430360D01*
X210998259Y-143511172D01*
X210917447Y-143591984D01*
X210836635Y-143726671D01*
X210809697Y-143807484D01*
X210809697Y-143915233D01*
X210863572Y-144022983D01*
X210917447Y-144076858D01*
X211025197Y-144130732D01*
X211079071Y-144130732D01*
X211267633Y-143942171D01*
X211159884Y-143834421D01*
X211267633Y-144427044D02*
X211833319Y-143861358D01*
X212048818Y-144076858D01*
X212075755Y-144157670D01*
X212075755Y-144211545D01*
X212048818Y-144292357D01*
X211968006Y-144373169D01*
X211887193Y-144400106D01*
X211833319Y-144400106D01*
X211752506Y-144373169D01*
X211537007Y-144157670D01*
X212318192Y-144453981D02*
X212372067Y-144453981D01*
X212452879Y-144480919D01*
X212587566Y-144615606D01*
X212614503Y-144696418D01*
X212614503Y-144750293D01*
X212587566Y-144831105D01*
X212533691Y-144884980D01*
X212425941Y-144938854D01*
X211779444Y-144938854D01*
X212129630Y-145289041D01*
X212883877Y-144911917D02*
X213261001Y-145289041D01*
X212452879Y-145612289D01*
X209007007Y-143618922D02*
X208980070Y-143538110D01*
X208899258Y-143457297D01*
X208791508Y-143403423D01*
X208683758Y-143403423D01*
X208602946Y-143430360D01*
X208468259Y-143511172D01*
X208387447Y-143591984D01*
X208306635Y-143726671D01*
X208279697Y-143807484D01*
X208279697Y-143915233D01*
X208333572Y-144022983D01*
X208387447Y-144076858D01*
X208495197Y-144130732D01*
X208549071Y-144130732D01*
X208737633Y-143942171D01*
X208629884Y-143834421D01*
X208737633Y-144427044D02*
X209303319Y-143861358D01*
X209518818Y-144076858D01*
X209545755Y-144157670D01*
X209545755Y-144211545D01*
X209518818Y-144292357D01*
X209438006Y-144373169D01*
X209357193Y-144400106D01*
X209303319Y-144400106D01*
X209222506Y-144373169D01*
X209007007Y-144157670D01*
X209788192Y-144453981D02*
X209842067Y-144453981D01*
X209922879Y-144480919D01*
X210057566Y-144615606D01*
X210084503Y-144696418D01*
X210084503Y-144750293D01*
X210057566Y-144831105D01*
X210003691Y-144884980D01*
X209895941Y-144938854D01*
X209249444Y-144938854D01*
X209599630Y-145289041D01*
X210650189Y-145208228D02*
X210542439Y-145100479D01*
X210461627Y-145073541D01*
X210407752Y-145073541D01*
X210273065Y-145100479D01*
X210138378Y-145181291D01*
X209922879Y-145396790D01*
X209895941Y-145477602D01*
X209895941Y-145531477D01*
X209922879Y-145612289D01*
X210030628Y-145720039D01*
X210111441Y-145746976D01*
X210165315Y-145746976D01*
X210246128Y-145720039D01*
X210380815Y-145585352D01*
X210407752Y-145504540D01*
X210407752Y-145450665D01*
X210380815Y-145369853D01*
X210273065Y-145262103D01*
X210192253Y-145235166D01*
X210138378Y-145235166D01*
X210057566Y-145262103D01*
X206184164Y-144359575D02*
X206264977Y-143901639D01*
X205860916Y-144036326D02*
X206426601Y-143470641D01*
X206642100Y-143686140D01*
X206669038Y-143766952D01*
X206669038Y-143820827D01*
X206642100Y-143901639D01*
X206561288Y-143982451D01*
X206480476Y-144009389D01*
X206426601Y-144009389D01*
X206345789Y-143982451D01*
X206130290Y-143766952D01*
X206992287Y-144036326D02*
X206534351Y-144494262D01*
X206507413Y-144575074D01*
X206507413Y-144628949D01*
X206534351Y-144709761D01*
X206642100Y-144817511D01*
X206722912Y-144844448D01*
X206776787Y-144844448D01*
X206857600Y-144817511D01*
X207315535Y-144359575D01*
X207019224Y-145194635D02*
X207584909Y-144628949D01*
X207342473Y-145517883D01*
X207908158Y-144952198D01*
X203927007Y-143618922D02*
X203900070Y-143538110D01*
X203819258Y-143457297D01*
X203711508Y-143403423D01*
X203603758Y-143403423D01*
X203522946Y-143430360D01*
X203388259Y-143511172D01*
X203307447Y-143591984D01*
X203226635Y-143726671D01*
X203199697Y-143807484D01*
X203199697Y-143915233D01*
X203253572Y-144022983D01*
X203307447Y-144076858D01*
X203415197Y-144130732D01*
X203469071Y-144130732D01*
X203657633Y-143942171D01*
X203549884Y-143834421D01*
X203657633Y-144427044D02*
X204223319Y-143861358D01*
X204438818Y-144076858D01*
X204465755Y-144157670D01*
X204465755Y-144211545D01*
X204438818Y-144292357D01*
X204358006Y-144373169D01*
X204277193Y-144400106D01*
X204223319Y-144400106D01*
X204142506Y-144373169D01*
X203927007Y-144157670D01*
X204708192Y-144453981D02*
X204762067Y-144453981D01*
X204842879Y-144480919D01*
X204977566Y-144615606D01*
X205004503Y-144696418D01*
X205004503Y-144750293D01*
X204977566Y-144831105D01*
X204923691Y-144884980D01*
X204815941Y-144938854D01*
X204169444Y-144938854D01*
X204519630Y-145289041D01*
X205246940Y-144992729D02*
X205300815Y-144992729D01*
X205381627Y-145019667D01*
X205516314Y-145154354D01*
X205543251Y-145235166D01*
X205543251Y-145289041D01*
X205516314Y-145369853D01*
X205462439Y-145423728D01*
X205354689Y-145477602D01*
X204708192Y-145477602D01*
X205058378Y-145827789D01*
X198837007Y-143618922D02*
X198810070Y-143538110D01*
X198729258Y-143457297D01*
X198621508Y-143403423D01*
X198513758Y-143403423D01*
X198432946Y-143430360D01*
X198298259Y-143511172D01*
X198217447Y-143591984D01*
X198136635Y-143726671D01*
X198109697Y-143807484D01*
X198109697Y-143915233D01*
X198163572Y-144022983D01*
X198217447Y-144076858D01*
X198325197Y-144130732D01*
X198379071Y-144130732D01*
X198567633Y-143942171D01*
X198459884Y-143834421D01*
X198567633Y-144427044D02*
X199133319Y-143861358D01*
X199348818Y-144076858D01*
X199375755Y-144157670D01*
X199375755Y-144211545D01*
X199348818Y-144292357D01*
X199268006Y-144373169D01*
X199187193Y-144400106D01*
X199133319Y-144400106D01*
X199052506Y-144373169D01*
X198837007Y-144157670D01*
X199618192Y-144453981D02*
X199672067Y-144453981D01*
X199752879Y-144480919D01*
X199887566Y-144615606D01*
X199914503Y-144696418D01*
X199914503Y-144750293D01*
X199887566Y-144831105D01*
X199833691Y-144884980D01*
X199725941Y-144938854D01*
X199079444Y-144938854D01*
X199429630Y-145289041D01*
X199968378Y-145827789D02*
X199645129Y-145504540D01*
X199806754Y-145666164D02*
X200372439Y-145100479D01*
X200237752Y-145127416D01*
X200130002Y-145127416D01*
X200049190Y-145100479D01*
X196307007Y-143618922D02*
X196280070Y-143538110D01*
X196199258Y-143457297D01*
X196091508Y-143403423D01*
X195983758Y-143403423D01*
X195902946Y-143430360D01*
X195768259Y-143511172D01*
X195687447Y-143591984D01*
X195606635Y-143726671D01*
X195579697Y-143807484D01*
X195579697Y-143915233D01*
X195633572Y-144022983D01*
X195687447Y-144076858D01*
X195795197Y-144130732D01*
X195849071Y-144130732D01*
X196037633Y-143942171D01*
X195929884Y-143834421D01*
X196037633Y-144427044D02*
X196603319Y-143861358D01*
X196818818Y-144076858D01*
X196845755Y-144157670D01*
X196845755Y-144211545D01*
X196818818Y-144292357D01*
X196738006Y-144373169D01*
X196657193Y-144400106D01*
X196603319Y-144400106D01*
X196522506Y-144373169D01*
X196307007Y-144157670D01*
X197088192Y-144453981D02*
X197142067Y-144453981D01*
X197222879Y-144480919D01*
X197357566Y-144615606D01*
X197384503Y-144696418D01*
X197384503Y-144750293D01*
X197357566Y-144831105D01*
X197303691Y-144884980D01*
X197195941Y-144938854D01*
X196549444Y-144938854D01*
X196899630Y-145289041D01*
X197815502Y-145073541D02*
X197869376Y-145127416D01*
X197896314Y-145208228D01*
X197896314Y-145262103D01*
X197869376Y-145342915D01*
X197788564Y-145477602D01*
X197653877Y-145612289D01*
X197519190Y-145693102D01*
X197438378Y-145720039D01*
X197384503Y-145720039D01*
X197303691Y-145693102D01*
X197249816Y-145639227D01*
X197222879Y-145558415D01*
X197222879Y-145504540D01*
X197249816Y-145423728D01*
X197330628Y-145289041D01*
X197465315Y-145154354D01*
X197600002Y-145073541D01*
X197680815Y-145046604D01*
X197734689Y-145046604D01*
X197815502Y-145073541D01*
X193767007Y-143618922D02*
X193740070Y-143538110D01*
X193659258Y-143457297D01*
X193551508Y-143403423D01*
X193443758Y-143403423D01*
X193362946Y-143430360D01*
X193228259Y-143511172D01*
X193147447Y-143591984D01*
X193066635Y-143726671D01*
X193039697Y-143807484D01*
X193039697Y-143915233D01*
X193093572Y-144022983D01*
X193147447Y-144076858D01*
X193255197Y-144130732D01*
X193309071Y-144130732D01*
X193497633Y-143942171D01*
X193389884Y-143834421D01*
X193497633Y-144427044D02*
X194063319Y-143861358D01*
X194278818Y-144076858D01*
X194305755Y-144157670D01*
X194305755Y-144211545D01*
X194278818Y-144292357D01*
X194198006Y-144373169D01*
X194117193Y-144400106D01*
X194063319Y-144400106D01*
X193982506Y-144373169D01*
X193767007Y-144157670D01*
X194359630Y-145289041D02*
X194036381Y-144965792D01*
X194198006Y-145127416D02*
X194763691Y-144561731D01*
X194629004Y-144588668D01*
X194521254Y-144588668D01*
X194440442Y-144561731D01*
X194629004Y-145558415D02*
X194736754Y-145666164D01*
X194817566Y-145693102D01*
X194871441Y-145693102D01*
X195006128Y-145666164D01*
X195140815Y-145585352D01*
X195356314Y-145369853D01*
X195383251Y-145289041D01*
X195383251Y-145235166D01*
X195356314Y-145154354D01*
X195248564Y-145046604D01*
X195167752Y-145019667D01*
X195113877Y-145019667D01*
X195033065Y-145046604D01*
X194898378Y-145181291D01*
X194871441Y-145262103D01*
X194871441Y-145315978D01*
X194898378Y-145396790D01*
X195006128Y-145504540D01*
X195086940Y-145531477D01*
X195140815Y-145531477D01*
X195221627Y-145504540D01*
X191227007Y-143618922D02*
X191200070Y-143538110D01*
X191119258Y-143457297D01*
X191011508Y-143403423D01*
X190903758Y-143403423D01*
X190822946Y-143430360D01*
X190688259Y-143511172D01*
X190607447Y-143591984D01*
X190526635Y-143726671D01*
X190499697Y-143807484D01*
X190499697Y-143915233D01*
X190553572Y-144022983D01*
X190607447Y-144076858D01*
X190715197Y-144130732D01*
X190769071Y-144130732D01*
X190957633Y-143942171D01*
X190849884Y-143834421D01*
X190957633Y-144427044D02*
X191523319Y-143861358D01*
X191738818Y-144076858D01*
X191765755Y-144157670D01*
X191765755Y-144211545D01*
X191738818Y-144292357D01*
X191658006Y-144373169D01*
X191577193Y-144400106D01*
X191523319Y-144400106D01*
X191442506Y-144373169D01*
X191227007Y-144157670D01*
X191819630Y-145289041D02*
X191496381Y-144965792D01*
X191658006Y-145127416D02*
X192223691Y-144561731D01*
X192089004Y-144588668D01*
X191981254Y-144588668D01*
X191900442Y-144561731D01*
X192466128Y-145289041D02*
X192439190Y-145208228D01*
X192439190Y-145154354D01*
X192466128Y-145073541D01*
X192493065Y-145046604D01*
X192573877Y-145019667D01*
X192627752Y-145019667D01*
X192708564Y-145046604D01*
X192816314Y-145154354D01*
X192843251Y-145235166D01*
X192843251Y-145289041D01*
X192816314Y-145369853D01*
X192789376Y-145396790D01*
X192708564Y-145423728D01*
X192654689Y-145423728D01*
X192573877Y-145396790D01*
X192466128Y-145289041D01*
X192385315Y-145262103D01*
X192331441Y-145262103D01*
X192250628Y-145289041D01*
X192142879Y-145396790D01*
X192115941Y-145477602D01*
X192115941Y-145531477D01*
X192142879Y-145612289D01*
X192250628Y-145720039D01*
X192331441Y-145746976D01*
X192385315Y-145746976D01*
X192466128Y-145720039D01*
X192573877Y-145612289D01*
X192600815Y-145531477D01*
X192600815Y-145477602D01*
X192573877Y-145396790D01*
X186147007Y-143618922D02*
X186120070Y-143538110D01*
X186039258Y-143457297D01*
X185931508Y-143403423D01*
X185823758Y-143403423D01*
X185742946Y-143430360D01*
X185608259Y-143511172D01*
X185527447Y-143591984D01*
X185446635Y-143726671D01*
X185419697Y-143807484D01*
X185419697Y-143915233D01*
X185473572Y-144022983D01*
X185527447Y-144076858D01*
X185635197Y-144130732D01*
X185689071Y-144130732D01*
X185877633Y-143942171D01*
X185769884Y-143834421D01*
X185877633Y-144427044D02*
X186443319Y-143861358D01*
X186658818Y-144076858D01*
X186685755Y-144157670D01*
X186685755Y-144211545D01*
X186658818Y-144292357D01*
X186578006Y-144373169D01*
X186497193Y-144400106D01*
X186443319Y-144400106D01*
X186362506Y-144373169D01*
X186147007Y-144157670D01*
X186739630Y-145289041D02*
X186416381Y-144965792D01*
X186578006Y-145127416D02*
X187143691Y-144561731D01*
X187009004Y-144588668D01*
X186901254Y-144588668D01*
X186820442Y-144561731D01*
X187493877Y-144911917D02*
X187871001Y-145289041D01*
X187062879Y-145612289D01*
X183607007Y-143618922D02*
X183580070Y-143538110D01*
X183499258Y-143457297D01*
X183391508Y-143403423D01*
X183283758Y-143403423D01*
X183202946Y-143430360D01*
X183068259Y-143511172D01*
X182987447Y-143591984D01*
X182906635Y-143726671D01*
X182879697Y-143807484D01*
X182879697Y-143915233D01*
X182933572Y-144022983D01*
X182987447Y-144076858D01*
X183095197Y-144130732D01*
X183149071Y-144130732D01*
X183337633Y-143942171D01*
X183229884Y-143834421D01*
X183337633Y-144427044D02*
X183903319Y-143861358D01*
X184118818Y-144076858D01*
X184145755Y-144157670D01*
X184145755Y-144211545D01*
X184118818Y-144292357D01*
X184038006Y-144373169D01*
X183957193Y-144400106D01*
X183903319Y-144400106D01*
X183822506Y-144373169D01*
X183607007Y-144157670D01*
X184199630Y-145289041D02*
X183876381Y-144965792D01*
X184038006Y-145127416D02*
X184603691Y-144561731D01*
X184469004Y-144588668D01*
X184361254Y-144588668D01*
X184280442Y-144561731D01*
X185250189Y-145208228D02*
X185142439Y-145100479D01*
X185061627Y-145073541D01*
X185007752Y-145073541D01*
X184873065Y-145100479D01*
X184738378Y-145181291D01*
X184522879Y-145396790D01*
X184495941Y-145477602D01*
X184495941Y-145531477D01*
X184522879Y-145612289D01*
X184630628Y-145720039D01*
X184711441Y-145746976D01*
X184765315Y-145746976D01*
X184846128Y-145720039D01*
X184980815Y-145585352D01*
X185007752Y-145504540D01*
X185007752Y-145450665D01*
X184980815Y-145369853D01*
X184873065Y-145262103D01*
X184792253Y-145235166D01*
X184738378Y-145235166D01*
X184657566Y-145262103D01*
X183607007Y-117510922D02*
X183580070Y-117430110D01*
X183499258Y-117349297D01*
X183391508Y-117295423D01*
X183283758Y-117295423D01*
X183202946Y-117322360D01*
X183068259Y-117403172D01*
X182987447Y-117483984D01*
X182906635Y-117618671D01*
X182879697Y-117699484D01*
X182879697Y-117807233D01*
X182933572Y-117914983D01*
X182987447Y-117968858D01*
X183095197Y-118022732D01*
X183149071Y-118022732D01*
X183337633Y-117834171D01*
X183229884Y-117726421D01*
X183337633Y-118319044D02*
X183903319Y-117753358D01*
X184118818Y-117968858D01*
X184145755Y-118049670D01*
X184145755Y-118103545D01*
X184118818Y-118184357D01*
X184038006Y-118265169D01*
X183957193Y-118292106D01*
X183903319Y-118292106D01*
X183822506Y-118265169D01*
X183607007Y-118049670D01*
X184199630Y-119181041D02*
X183876381Y-118857792D01*
X184038006Y-119019416D02*
X184603691Y-118453731D01*
X184469004Y-118480668D01*
X184361254Y-118480668D01*
X184280442Y-118453731D01*
X185277126Y-119127166D02*
X185007752Y-118857792D01*
X184711441Y-119100228D01*
X184765315Y-119100228D01*
X184846128Y-119127166D01*
X184980815Y-119261853D01*
X185007752Y-119342665D01*
X185007752Y-119396540D01*
X184980815Y-119477352D01*
X184846128Y-119612039D01*
X184765315Y-119638976D01*
X184711441Y-119638976D01*
X184630628Y-119612039D01*
X184495941Y-119477352D01*
X184469004Y-119396540D01*
X184469004Y-119342665D01*
X186147007Y-117464922D02*
X186120070Y-117384110D01*
X186039258Y-117303297D01*
X185931508Y-117249423D01*
X185823758Y-117249423D01*
X185742946Y-117276360D01*
X185608259Y-117357172D01*
X185527447Y-117437984D01*
X185446635Y-117572671D01*
X185419697Y-117653484D01*
X185419697Y-117761233D01*
X185473572Y-117868983D01*
X185527447Y-117922858D01*
X185635197Y-117976732D01*
X185689071Y-117976732D01*
X185877633Y-117788171D01*
X185769884Y-117680421D01*
X185877633Y-118273044D02*
X186443319Y-117707358D01*
X186658818Y-117922858D01*
X186685755Y-118003670D01*
X186685755Y-118057545D01*
X186658818Y-118138357D01*
X186578006Y-118219169D01*
X186497193Y-118246106D01*
X186443319Y-118246106D01*
X186362506Y-118219169D01*
X186147007Y-118003670D01*
X186739630Y-119135041D02*
X186416381Y-118811792D01*
X186578006Y-118973416D02*
X187143691Y-118407731D01*
X187009004Y-118434668D01*
X186901254Y-118434668D01*
X186820442Y-118407731D01*
X187601627Y-119242790D02*
X187224503Y-119619914D01*
X187682439Y-118892604D02*
X187143691Y-119161978D01*
X187493877Y-119512164D01*
X191227007Y-117510922D02*
X191200070Y-117430110D01*
X191119258Y-117349297D01*
X191011508Y-117295423D01*
X190903758Y-117295423D01*
X190822946Y-117322360D01*
X190688259Y-117403172D01*
X190607447Y-117483984D01*
X190526635Y-117618671D01*
X190499697Y-117699484D01*
X190499697Y-117807233D01*
X190553572Y-117914983D01*
X190607447Y-117968858D01*
X190715197Y-118022732D01*
X190769071Y-118022732D01*
X190957633Y-117834171D01*
X190849884Y-117726421D01*
X190957633Y-118319044D02*
X191523319Y-117753358D01*
X191738818Y-117968858D01*
X191765755Y-118049670D01*
X191765755Y-118103545D01*
X191738818Y-118184357D01*
X191658006Y-118265169D01*
X191577193Y-118292106D01*
X191523319Y-118292106D01*
X191442506Y-118265169D01*
X191227007Y-118049670D01*
X191819630Y-119181041D02*
X191496381Y-118857792D01*
X191658006Y-119019416D02*
X192223691Y-118453731D01*
X192089004Y-118480668D01*
X191981254Y-118480668D01*
X191900442Y-118453731D01*
X192573877Y-118803917D02*
X192924063Y-119154103D01*
X192520002Y-119181041D01*
X192600815Y-119261853D01*
X192627752Y-119342665D01*
X192627752Y-119396540D01*
X192600815Y-119477352D01*
X192466128Y-119612039D01*
X192385315Y-119638976D01*
X192331441Y-119638976D01*
X192250628Y-119612039D01*
X192089004Y-119450415D01*
X192062067Y-119369602D01*
X192062067Y-119315728D01*
X193767007Y-117364922D02*
X193740070Y-117284110D01*
X193659258Y-117203297D01*
X193551508Y-117149423D01*
X193443758Y-117149423D01*
X193362946Y-117176360D01*
X193228259Y-117257172D01*
X193147447Y-117337984D01*
X193066635Y-117472671D01*
X193039697Y-117553484D01*
X193039697Y-117661233D01*
X193093572Y-117768983D01*
X193147447Y-117822858D01*
X193255197Y-117876732D01*
X193309071Y-117876732D01*
X193497633Y-117688171D01*
X193389884Y-117580421D01*
X193497633Y-118173044D02*
X194063319Y-117607358D01*
X194278818Y-117822858D01*
X194305755Y-117903670D01*
X194305755Y-117957545D01*
X194278818Y-118038357D01*
X194198006Y-118119169D01*
X194117193Y-118146106D01*
X194063319Y-118146106D01*
X193982506Y-118119169D01*
X193767007Y-117903670D01*
X194359630Y-119035041D02*
X194036381Y-118711792D01*
X194198006Y-118873416D02*
X194763691Y-118307731D01*
X194629004Y-118334668D01*
X194521254Y-118334668D01*
X194440442Y-118307731D01*
X195086940Y-118738729D02*
X195140815Y-118738729D01*
X195221627Y-118765667D01*
X195356314Y-118900354D01*
X195383251Y-118981166D01*
X195383251Y-119035041D01*
X195356314Y-119115853D01*
X195302439Y-119169728D01*
X195194689Y-119223602D01*
X194548192Y-119223602D01*
X194898378Y-119573789D01*
X196307007Y-117364922D02*
X196280070Y-117284110D01*
X196199258Y-117203297D01*
X196091508Y-117149423D01*
X195983758Y-117149423D01*
X195902946Y-117176360D01*
X195768259Y-117257172D01*
X195687447Y-117337984D01*
X195606635Y-117472671D01*
X195579697Y-117553484D01*
X195579697Y-117661233D01*
X195633572Y-117768983D01*
X195687447Y-117822858D01*
X195795197Y-117876732D01*
X195849071Y-117876732D01*
X196037633Y-117688171D01*
X195929884Y-117580421D01*
X196037633Y-118173044D02*
X196603319Y-117607358D01*
X196818818Y-117822858D01*
X196845755Y-117903670D01*
X196845755Y-117957545D01*
X196818818Y-118038357D01*
X196738006Y-118119169D01*
X196657193Y-118146106D01*
X196603319Y-118146106D01*
X196522506Y-118119169D01*
X196307007Y-117903670D01*
X196899630Y-119035041D02*
X196576381Y-118711792D01*
X196738006Y-118873416D02*
X197303691Y-118307731D01*
X197169004Y-118334668D01*
X197061254Y-118334668D01*
X196980442Y-118307731D01*
X197438378Y-119573789D02*
X197115129Y-119250540D01*
X197276754Y-119412164D02*
X197842439Y-118846479D01*
X197707752Y-118873416D01*
X197600002Y-118873416D01*
X197519190Y-118846479D01*
X198847007Y-117510922D02*
X198820070Y-117430110D01*
X198739258Y-117349297D01*
X198631508Y-117295423D01*
X198523758Y-117295423D01*
X198442946Y-117322360D01*
X198308259Y-117403172D01*
X198227447Y-117483984D01*
X198146635Y-117618671D01*
X198119697Y-117699484D01*
X198119697Y-117807233D01*
X198173572Y-117914983D01*
X198227447Y-117968858D01*
X198335197Y-118022732D01*
X198389071Y-118022732D01*
X198577633Y-117834171D01*
X198469884Y-117726421D01*
X198577633Y-118319044D02*
X199143319Y-117753358D01*
X199358818Y-117968858D01*
X199385755Y-118049670D01*
X199385755Y-118103545D01*
X199358818Y-118184357D01*
X199278006Y-118265169D01*
X199197193Y-118292106D01*
X199143319Y-118292106D01*
X199062506Y-118265169D01*
X198847007Y-118049670D01*
X199439630Y-119181041D02*
X199116381Y-118857792D01*
X199278006Y-119019416D02*
X199843691Y-118453731D01*
X199709004Y-118480668D01*
X199601254Y-118480668D01*
X199520442Y-118453731D01*
X200355502Y-118965541D02*
X200409376Y-119019416D01*
X200436314Y-119100228D01*
X200436314Y-119154103D01*
X200409376Y-119234915D01*
X200328564Y-119369602D01*
X200193877Y-119504289D01*
X200059190Y-119585102D01*
X199978378Y-119612039D01*
X199924503Y-119612039D01*
X199843691Y-119585102D01*
X199789816Y-119531227D01*
X199762879Y-119450415D01*
X199762879Y-119396540D01*
X199789816Y-119315728D01*
X199870628Y-119181041D01*
X200005315Y-119046354D01*
X200140002Y-118965541D01*
X200220815Y-118938604D01*
X200274689Y-118938604D01*
X200355502Y-118965541D01*
X204196381Y-118034296D02*
X204169444Y-117953484D01*
X204088632Y-117872671D01*
X203980882Y-117818797D01*
X203873132Y-117818797D01*
X203792320Y-117845734D01*
X203657633Y-117926546D01*
X203576821Y-118007358D01*
X203496009Y-118142045D01*
X203469071Y-118222858D01*
X203469071Y-118330607D01*
X203522946Y-118438357D01*
X203576821Y-118492232D01*
X203684571Y-118546106D01*
X203738445Y-118546106D01*
X203927007Y-118357545D01*
X203819258Y-118249795D01*
X203927007Y-118842418D02*
X204492693Y-118276732D01*
X204708192Y-118492232D01*
X204735129Y-118573044D01*
X204735129Y-118626919D01*
X204708192Y-118707731D01*
X204627380Y-118788543D01*
X204546567Y-118815480D01*
X204492693Y-118815480D01*
X204411880Y-118788543D01*
X204196381Y-118573044D01*
X204519630Y-119435041D02*
X204627380Y-119542790D01*
X204708192Y-119569728D01*
X204762067Y-119569728D01*
X204896754Y-119542790D01*
X205031441Y-119461978D01*
X205246940Y-119246479D01*
X205273877Y-119165667D01*
X205273877Y-119111792D01*
X205246940Y-119030980D01*
X205139190Y-118923230D01*
X205058378Y-118896293D01*
X205004503Y-118896293D01*
X204923691Y-118923230D01*
X204789004Y-119057917D01*
X204762067Y-119138729D01*
X204762067Y-119192604D01*
X204789004Y-119273416D01*
X204896754Y-119381166D01*
X204977566Y-119408103D01*
X205031441Y-119408103D01*
X205112253Y-119381166D01*
X206736381Y-118034296D02*
X206709444Y-117953484D01*
X206628632Y-117872671D01*
X206520882Y-117818797D01*
X206413132Y-117818797D01*
X206332320Y-117845734D01*
X206197633Y-117926546D01*
X206116821Y-118007358D01*
X206036009Y-118142045D01*
X206009071Y-118222858D01*
X206009071Y-118330607D01*
X206062946Y-118438357D01*
X206116821Y-118492232D01*
X206224571Y-118546106D01*
X206278445Y-118546106D01*
X206467007Y-118357545D01*
X206359258Y-118249795D01*
X206467007Y-118842418D02*
X207032693Y-118276732D01*
X207248192Y-118492232D01*
X207275129Y-118573044D01*
X207275129Y-118626919D01*
X207248192Y-118707731D01*
X207167380Y-118788543D01*
X207086567Y-118815480D01*
X207032693Y-118815480D01*
X206951880Y-118788543D01*
X206736381Y-118573044D01*
X207436754Y-119165667D02*
X207409816Y-119084854D01*
X207409816Y-119030980D01*
X207436754Y-118950167D01*
X207463691Y-118923230D01*
X207544503Y-118896293D01*
X207598378Y-118896293D01*
X207679190Y-118923230D01*
X207786940Y-119030980D01*
X207813877Y-119111792D01*
X207813877Y-119165667D01*
X207786940Y-119246479D01*
X207760002Y-119273416D01*
X207679190Y-119300354D01*
X207625315Y-119300354D01*
X207544503Y-119273416D01*
X207436754Y-119165667D01*
X207355941Y-119138729D01*
X207302067Y-119138729D01*
X207221254Y-119165667D01*
X207113505Y-119273416D01*
X207086567Y-119354228D01*
X207086567Y-119408103D01*
X207113505Y-119488915D01*
X207221254Y-119596665D01*
X207302067Y-119623602D01*
X207355941Y-119623602D01*
X207436754Y-119596665D01*
X207544503Y-119488915D01*
X207571441Y-119408103D01*
X207571441Y-119354228D01*
X207544503Y-119273416D01*
X209306381Y-118134296D02*
X209279444Y-118053484D01*
X209198632Y-117972671D01*
X209090882Y-117918797D01*
X208983132Y-117918797D01*
X208902320Y-117945734D01*
X208767633Y-118026546D01*
X208686821Y-118107358D01*
X208606009Y-118242045D01*
X208579071Y-118322858D01*
X208579071Y-118430607D01*
X208632946Y-118538357D01*
X208686821Y-118592232D01*
X208794571Y-118646106D01*
X208848445Y-118646106D01*
X209037007Y-118457545D01*
X208929258Y-118349795D01*
X209037007Y-118942418D02*
X209602693Y-118376732D01*
X209818192Y-118592232D01*
X209845129Y-118673044D01*
X209845129Y-118726919D01*
X209818192Y-118807731D01*
X209737380Y-118888543D01*
X209656567Y-118915480D01*
X209602693Y-118915480D01*
X209521880Y-118888543D01*
X209306381Y-118673044D01*
X210114503Y-118888543D02*
X210491627Y-119265667D01*
X209683505Y-119588915D01*
X211816381Y-118034296D02*
X211789444Y-117953484D01*
X211708632Y-117872671D01*
X211600882Y-117818797D01*
X211493132Y-117818797D01*
X211412320Y-117845734D01*
X211277633Y-117926546D01*
X211196821Y-118007358D01*
X211116009Y-118142045D01*
X211089071Y-118222858D01*
X211089071Y-118330607D01*
X211142946Y-118438357D01*
X211196821Y-118492232D01*
X211304571Y-118546106D01*
X211358445Y-118546106D01*
X211547007Y-118357545D01*
X211439258Y-118249795D01*
X211547007Y-118842418D02*
X212112693Y-118276732D01*
X212328192Y-118492232D01*
X212355129Y-118573044D01*
X212355129Y-118626919D01*
X212328192Y-118707731D01*
X212247380Y-118788543D01*
X212166567Y-118815480D01*
X212112693Y-118815480D01*
X212031880Y-118788543D01*
X211816381Y-118573044D01*
X212920815Y-119084854D02*
X212813065Y-118977105D01*
X212732253Y-118950167D01*
X212678378Y-118950167D01*
X212543691Y-118977105D01*
X212409004Y-119057917D01*
X212193505Y-119273416D01*
X212166567Y-119354228D01*
X212166567Y-119408103D01*
X212193505Y-119488915D01*
X212301254Y-119596665D01*
X212382067Y-119623602D01*
X212435941Y-119623602D01*
X212516754Y-119596665D01*
X212651441Y-119461978D01*
X212678378Y-119381166D01*
X212678378Y-119327291D01*
X212651441Y-119246479D01*
X212543691Y-119138729D01*
X212462879Y-119111792D01*
X212409004Y-119111792D01*
X212328192Y-119138729D01*
X216896381Y-118034296D02*
X216869444Y-117953484D01*
X216788632Y-117872671D01*
X216680882Y-117818797D01*
X216573132Y-117818797D01*
X216492320Y-117845734D01*
X216357633Y-117926546D01*
X216276821Y-118007358D01*
X216196009Y-118142045D01*
X216169071Y-118222858D01*
X216169071Y-118330607D01*
X216222946Y-118438357D01*
X216276821Y-118492232D01*
X216384571Y-118546106D01*
X216438445Y-118546106D01*
X216627007Y-118357545D01*
X216519258Y-118249795D01*
X216627007Y-118842418D02*
X217192693Y-118276732D01*
X217408192Y-118492232D01*
X217435129Y-118573044D01*
X217435129Y-118626919D01*
X217408192Y-118707731D01*
X217327380Y-118788543D01*
X217246567Y-118815480D01*
X217192693Y-118815480D01*
X217111880Y-118788543D01*
X216896381Y-118573044D01*
X218027752Y-119111792D02*
X217758378Y-118842418D01*
X217462067Y-119084854D01*
X217515941Y-119084854D01*
X217596754Y-119111792D01*
X217731441Y-119246479D01*
X217758378Y-119327291D01*
X217758378Y-119381166D01*
X217731441Y-119461978D01*
X217596754Y-119596665D01*
X217515941Y-119623602D01*
X217462067Y-119623602D01*
X217381254Y-119596665D01*
X217246567Y-119461978D01*
X217219630Y-119381166D01*
X217219630Y-119327291D01*
X219436381Y-118034296D02*
X219409444Y-117953484D01*
X219328632Y-117872671D01*
X219220882Y-117818797D01*
X219113132Y-117818797D01*
X219032320Y-117845734D01*
X218897633Y-117926546D01*
X218816821Y-118007358D01*
X218736009Y-118142045D01*
X218709071Y-118222858D01*
X218709071Y-118330607D01*
X218762946Y-118438357D01*
X218816821Y-118492232D01*
X218924571Y-118546106D01*
X218978445Y-118546106D01*
X219167007Y-118357545D01*
X219059258Y-118249795D01*
X219167007Y-118842418D02*
X219732693Y-118276732D01*
X219948192Y-118492232D01*
X219975129Y-118573044D01*
X219975129Y-118626919D01*
X219948192Y-118707731D01*
X219867380Y-118788543D01*
X219786567Y-118815480D01*
X219732693Y-118815480D01*
X219651880Y-118788543D01*
X219436381Y-118573044D01*
X220352253Y-119273416D02*
X219975129Y-119650540D01*
X220433065Y-118923230D02*
X219894317Y-119192604D01*
X220244503Y-119542790D01*
X221976381Y-118034296D02*
X221949444Y-117953484D01*
X221868632Y-117872671D01*
X221760882Y-117818797D01*
X221653132Y-117818797D01*
X221572320Y-117845734D01*
X221437633Y-117926546D01*
X221356821Y-118007358D01*
X221276009Y-118142045D01*
X221249071Y-118222858D01*
X221249071Y-118330607D01*
X221302946Y-118438357D01*
X221356821Y-118492232D01*
X221464571Y-118546106D01*
X221518445Y-118546106D01*
X221707007Y-118357545D01*
X221599258Y-118249795D01*
X221707007Y-118842418D02*
X222272693Y-118276732D01*
X222488192Y-118492232D01*
X222515129Y-118573044D01*
X222515129Y-118626919D01*
X222488192Y-118707731D01*
X222407380Y-118788543D01*
X222326567Y-118815480D01*
X222272693Y-118815480D01*
X222191880Y-118788543D01*
X221976381Y-118573044D01*
X222784503Y-118788543D02*
X223134689Y-119138729D01*
X222730628Y-119165667D01*
X222811441Y-119246479D01*
X222838378Y-119327291D01*
X222838378Y-119381166D01*
X222811441Y-119461978D01*
X222676754Y-119596665D01*
X222595941Y-119623602D01*
X222542067Y-119623602D01*
X222461254Y-119596665D01*
X222299630Y-119435041D01*
X222272693Y-119354228D01*
X222272693Y-119300354D01*
X232136381Y-118034296D02*
X232109444Y-117953484D01*
X232028632Y-117872671D01*
X231920882Y-117818797D01*
X231813132Y-117818797D01*
X231732320Y-117845734D01*
X231597633Y-117926546D01*
X231516821Y-118007358D01*
X231436009Y-118142045D01*
X231409071Y-118222858D01*
X231409071Y-118330607D01*
X231462946Y-118438357D01*
X231516821Y-118492232D01*
X231624571Y-118546106D01*
X231678445Y-118546106D01*
X231867007Y-118357545D01*
X231759258Y-118249795D01*
X231867007Y-118842418D02*
X232432693Y-118276732D01*
X232648192Y-118492232D01*
X232675129Y-118573044D01*
X232675129Y-118626919D01*
X232648192Y-118707731D01*
X232567380Y-118788543D01*
X232486567Y-118815480D01*
X232432693Y-118815480D01*
X232351880Y-118788543D01*
X232136381Y-118573044D01*
X233106128Y-118950167D02*
X233160002Y-119004042D01*
X233186940Y-119084854D01*
X233186940Y-119138729D01*
X233160002Y-119219541D01*
X233079190Y-119354228D01*
X232944503Y-119488915D01*
X232809816Y-119569728D01*
X232729004Y-119596665D01*
X232675129Y-119596665D01*
X232594317Y-119569728D01*
X232540442Y-119515853D01*
X232513505Y-119435041D01*
X232513505Y-119381166D01*
X232540442Y-119300354D01*
X232621254Y-119165667D01*
X232755941Y-119030980D01*
X232890628Y-118950167D01*
X232971441Y-118923230D01*
X233025315Y-118923230D01*
X233106128Y-118950167D01*
X224516381Y-117934296D02*
X224489444Y-117853484D01*
X224408632Y-117772671D01*
X224300882Y-117718797D01*
X224193132Y-117718797D01*
X224112320Y-117745734D01*
X223977633Y-117826546D01*
X223896821Y-117907358D01*
X223816009Y-118042045D01*
X223789071Y-118122858D01*
X223789071Y-118230607D01*
X223842946Y-118338357D01*
X223896821Y-118392232D01*
X224004571Y-118446106D01*
X224058445Y-118446106D01*
X224247007Y-118257545D01*
X224139258Y-118149795D01*
X224247007Y-118742418D02*
X224812693Y-118176732D01*
X225028192Y-118392232D01*
X225055129Y-118473044D01*
X225055129Y-118526919D01*
X225028192Y-118607731D01*
X224947380Y-118688543D01*
X224866567Y-118715480D01*
X224812693Y-118715480D01*
X224731880Y-118688543D01*
X224516381Y-118473044D01*
X225297566Y-118769355D02*
X225351441Y-118769355D01*
X225432253Y-118796293D01*
X225566940Y-118930980D01*
X225593877Y-119011792D01*
X225593877Y-119065667D01*
X225566940Y-119146479D01*
X225513065Y-119200354D01*
X225405315Y-119254228D01*
X224758818Y-119254228D01*
X225109004Y-119604415D01*
X229606381Y-117934296D02*
X229579444Y-117853484D01*
X229498632Y-117772671D01*
X229390882Y-117718797D01*
X229283132Y-117718797D01*
X229202320Y-117745734D01*
X229067633Y-117826546D01*
X228986821Y-117907358D01*
X228906009Y-118042045D01*
X228879071Y-118122858D01*
X228879071Y-118230607D01*
X228932946Y-118338357D01*
X228986821Y-118392232D01*
X229094571Y-118446106D01*
X229148445Y-118446106D01*
X229337007Y-118257545D01*
X229229258Y-118149795D01*
X229337007Y-118742418D02*
X229902693Y-118176732D01*
X230118192Y-118392232D01*
X230145129Y-118473044D01*
X230145129Y-118526919D01*
X230118192Y-118607731D01*
X230037380Y-118688543D01*
X229956567Y-118715480D01*
X229902693Y-118715480D01*
X229821880Y-118688543D01*
X229606381Y-118473044D01*
X230199004Y-119604415D02*
X229875755Y-119281166D01*
X230037380Y-119442790D02*
X230603065Y-118877105D01*
X230468378Y-118904042D01*
X230360628Y-118904042D01*
X230279816Y-118877105D01*
%TO.C,JS1*%
X82194876Y-74627980D02*
X82194876Y-75342266D01*
X82147257Y-75485123D01*
X82052019Y-75580361D01*
X81909161Y-75627980D01*
X81813923Y-75627980D01*
X82623447Y-75580361D02*
X82766304Y-75627980D01*
X83004400Y-75627980D01*
X83099638Y-75580361D01*
X83147257Y-75532742D01*
X83194876Y-75437504D01*
X83194876Y-75342266D01*
X83147257Y-75247028D01*
X83099638Y-75199409D01*
X83004400Y-75151790D01*
X82813923Y-75104171D01*
X82718685Y-75056552D01*
X82671066Y-75008933D01*
X82623447Y-74913695D01*
X82623447Y-74818457D01*
X82671066Y-74723219D01*
X82718685Y-74675600D01*
X82813923Y-74627980D01*
X83052019Y-74627980D01*
X83194876Y-74675600D01*
X84147257Y-75627980D02*
X83575828Y-75627980D01*
X83861542Y-75627980D02*
X83861542Y-74627980D01*
X83766304Y-74770838D01*
X83671066Y-74866076D01*
X83575828Y-74913695D01*
%TO.C,U14*%
X159189380Y-99852095D02*
X159998904Y-99852095D01*
X160094142Y-99804476D01*
X160141761Y-99756857D01*
X160189380Y-99661619D01*
X160189380Y-99471142D01*
X160141761Y-99375904D01*
X160094142Y-99328285D01*
X159998904Y-99280666D01*
X159189380Y-99280666D01*
X160189380Y-98280666D02*
X160189380Y-98852095D01*
X160189380Y-98566380D02*
X159189380Y-98566380D01*
X159332238Y-98661619D01*
X159427476Y-98756857D01*
X159475095Y-98852095D01*
X159522714Y-97423523D02*
X160189380Y-97423523D01*
X159141761Y-97661619D02*
X159856047Y-97899714D01*
X159856047Y-97280666D01*
%TO.C,U13*%
X166432904Y-92587580D02*
X166432904Y-93397104D01*
X166480523Y-93492342D01*
X166528142Y-93539961D01*
X166623380Y-93587580D01*
X166813857Y-93587580D01*
X166909095Y-93539961D01*
X166956714Y-93492342D01*
X167004333Y-93397104D01*
X167004333Y-92587580D01*
X168004333Y-93587580D02*
X167432904Y-93587580D01*
X167718619Y-93587580D02*
X167718619Y-92587580D01*
X167623380Y-92730438D01*
X167528142Y-92825676D01*
X167432904Y-92873295D01*
X168337666Y-92587580D02*
X168956714Y-92587580D01*
X168623380Y-92968533D01*
X168766238Y-92968533D01*
X168861476Y-93016152D01*
X168909095Y-93063771D01*
X168956714Y-93159009D01*
X168956714Y-93397104D01*
X168909095Y-93492342D01*
X168861476Y-93539961D01*
X168766238Y-93587580D01*
X168480523Y-93587580D01*
X168385285Y-93539961D01*
X168337666Y-93492342D01*
%TO.C,U12*%
X156455904Y-89900380D02*
X156455904Y-90709904D01*
X156503523Y-90805142D01*
X156551142Y-90852761D01*
X156646380Y-90900380D01*
X156836857Y-90900380D01*
X156932095Y-90852761D01*
X156979714Y-90805142D01*
X157027333Y-90709904D01*
X157027333Y-89900380D01*
X158027333Y-90900380D02*
X157455904Y-90900380D01*
X157741619Y-90900380D02*
X157741619Y-89900380D01*
X157646380Y-90043238D01*
X157551142Y-90138476D01*
X157455904Y-90186095D01*
X158408285Y-89995619D02*
X158455904Y-89948000D01*
X158551142Y-89900380D01*
X158789238Y-89900380D01*
X158884476Y-89948000D01*
X158932095Y-89995619D01*
X158979714Y-90090857D01*
X158979714Y-90186095D01*
X158932095Y-90328952D01*
X158360666Y-90900380D01*
X158979714Y-90900380D01*
%TO.C,U11*%
D16*
X143716904Y-82161380D02*
X143716904Y-82970904D01*
X143764523Y-83066142D01*
X143812142Y-83113761D01*
X143907380Y-83161380D01*
X144097857Y-83161380D01*
X144193095Y-83113761D01*
X144240714Y-83066142D01*
X144288333Y-82970904D01*
X144288333Y-82161380D01*
X145288333Y-83161380D02*
X144716904Y-83161380D01*
X145002619Y-83161380D02*
X145002619Y-82161380D01*
X144907380Y-82304238D01*
X144812142Y-82399476D01*
X144716904Y-82447095D01*
X146240714Y-83161380D02*
X145669285Y-83161380D01*
X145955000Y-83161380D02*
X145955000Y-82161380D01*
X145859761Y-82304238D01*
X145764523Y-82399476D01*
X145669285Y-82447095D01*
%TO.C,C14*%
D13*
X161998142Y-99642342D02*
X161950523Y-99689961D01*
X161807666Y-99737580D01*
X161712428Y-99737580D01*
X161569571Y-99689961D01*
X161474333Y-99594723D01*
X161426714Y-99499485D01*
X161379095Y-99309009D01*
X161379095Y-99166152D01*
X161426714Y-98975676D01*
X161474333Y-98880438D01*
X161569571Y-98785200D01*
X161712428Y-98737580D01*
X161807666Y-98737580D01*
X161950523Y-98785200D01*
X161998142Y-98832819D01*
X162950523Y-99737580D02*
X162379095Y-99737580D01*
X162664809Y-99737580D02*
X162664809Y-98737580D01*
X162569571Y-98880438D01*
X162474333Y-98975676D01*
X162379095Y-99023295D01*
X163807666Y-99070914D02*
X163807666Y-99737580D01*
X163569571Y-98689961D02*
X163331476Y-99404247D01*
X163950523Y-99404247D01*
%TO.C,C13*%
X166448142Y-97992342D02*
X166400523Y-98039961D01*
X166257666Y-98087580D01*
X166162428Y-98087580D01*
X166019571Y-98039961D01*
X165924333Y-97944723D01*
X165876714Y-97849485D01*
X165829095Y-97659009D01*
X165829095Y-97516152D01*
X165876714Y-97325676D01*
X165924333Y-97230438D01*
X166019571Y-97135200D01*
X166162428Y-97087580D01*
X166257666Y-97087580D01*
X166400523Y-97135200D01*
X166448142Y-97182819D01*
X167400523Y-98087580D02*
X166829095Y-98087580D01*
X167114809Y-98087580D02*
X167114809Y-97087580D01*
X167019571Y-97230438D01*
X166924333Y-97325676D01*
X166829095Y-97373295D01*
X167733857Y-97087580D02*
X168352904Y-97087580D01*
X168019571Y-97468533D01*
X168162428Y-97468533D01*
X168257666Y-97516152D01*
X168305285Y-97563771D01*
X168352904Y-97659009D01*
X168352904Y-97897104D01*
X168305285Y-97992342D01*
X168257666Y-98039961D01*
X168162428Y-98087580D01*
X167876714Y-98087580D01*
X167781476Y-98039961D01*
X167733857Y-97992342D01*
%TO.C,C12*%
X161998142Y-99992342D02*
X161950523Y-100039961D01*
X161807666Y-100087580D01*
X161712428Y-100087580D01*
X161569571Y-100039961D01*
X161474333Y-99944723D01*
X161426714Y-99849485D01*
X161379095Y-99659009D01*
X161379095Y-99516152D01*
X161426714Y-99325676D01*
X161474333Y-99230438D01*
X161569571Y-99135200D01*
X161712428Y-99087580D01*
X161807666Y-99087580D01*
X161950523Y-99135200D01*
X161998142Y-99182819D01*
X162950523Y-100087580D02*
X162379095Y-100087580D01*
X162664809Y-100087580D02*
X162664809Y-99087580D01*
X162569571Y-99230438D01*
X162474333Y-99325676D01*
X162379095Y-99373295D01*
X163331476Y-99182819D02*
X163379095Y-99135200D01*
X163474333Y-99087580D01*
X163712428Y-99087580D01*
X163807666Y-99135200D01*
X163855285Y-99182819D01*
X163902904Y-99278057D01*
X163902904Y-99373295D01*
X163855285Y-99516152D01*
X163283857Y-100087580D01*
X163902904Y-100087580D01*
%TO.C,C11*%
X169979142Y-101351142D02*
X169931523Y-101398761D01*
X169788666Y-101446380D01*
X169693428Y-101446380D01*
X169550571Y-101398761D01*
X169455333Y-101303523D01*
X169407714Y-101208285D01*
X169360095Y-101017809D01*
X169360095Y-100874952D01*
X169407714Y-100684476D01*
X169455333Y-100589238D01*
X169550571Y-100494000D01*
X169693428Y-100446380D01*
X169788666Y-100446380D01*
X169931523Y-100494000D01*
X169979142Y-100541619D01*
X170931523Y-101446380D02*
X170360095Y-101446380D01*
X170645809Y-101446380D02*
X170645809Y-100446380D01*
X170550571Y-100589238D01*
X170455333Y-100684476D01*
X170360095Y-100732095D01*
X171883904Y-101446380D02*
X171312476Y-101446380D01*
X171598190Y-101446380D02*
X171598190Y-100446380D01*
X171502952Y-100589238D01*
X171407714Y-100684476D01*
X171312476Y-100732095D01*
%TO.C,C10*%
X155199142Y-93286857D02*
X155246761Y-93334476D01*
X155294380Y-93477333D01*
X155294380Y-93572571D01*
X155246761Y-93715428D01*
X155151523Y-93810666D01*
X155056285Y-93858285D01*
X154865809Y-93905904D01*
X154722952Y-93905904D01*
X154532476Y-93858285D01*
X154437238Y-93810666D01*
X154342000Y-93715428D01*
X154294380Y-93572571D01*
X154294380Y-93477333D01*
X154342000Y-93334476D01*
X154389619Y-93286857D01*
X155294380Y-92334476D02*
X155294380Y-92905904D01*
X155294380Y-92620190D02*
X154294380Y-92620190D01*
X154437238Y-92715428D01*
X154532476Y-92810666D01*
X154580095Y-92905904D01*
X154294380Y-91715428D02*
X154294380Y-91620190D01*
X154342000Y-91524952D01*
X154389619Y-91477333D01*
X154484857Y-91429714D01*
X154675333Y-91382095D01*
X154913428Y-91382095D01*
X155103904Y-91429714D01*
X155199142Y-91477333D01*
X155246761Y-91524952D01*
X155294380Y-91620190D01*
X155294380Y-91715428D01*
X155246761Y-91810666D01*
X155199142Y-91858285D01*
X155103904Y-91905904D01*
X154913428Y-91953523D01*
X154675333Y-91953523D01*
X154484857Y-91905904D01*
X154389619Y-91858285D01*
X154342000Y-91810666D01*
X154294380Y-91715428D01*
%TO.C,C9*%
X162454333Y-97922142D02*
X162406714Y-97969761D01*
X162263857Y-98017380D01*
X162168619Y-98017380D01*
X162025761Y-97969761D01*
X161930523Y-97874523D01*
X161882904Y-97779285D01*
X161835285Y-97588809D01*
X161835285Y-97445952D01*
X161882904Y-97255476D01*
X161930523Y-97160238D01*
X162025761Y-97065000D01*
X162168619Y-97017380D01*
X162263857Y-97017380D01*
X162406714Y-97065000D01*
X162454333Y-97112619D01*
X162930523Y-98017380D02*
X163121000Y-98017380D01*
X163216238Y-97969761D01*
X163263857Y-97922142D01*
X163359095Y-97779285D01*
X163406714Y-97588809D01*
X163406714Y-97207857D01*
X163359095Y-97112619D01*
X163311476Y-97065000D01*
X163216238Y-97017380D01*
X163025761Y-97017380D01*
X162930523Y-97065000D01*
X162882904Y-97112619D01*
X162835285Y-97207857D01*
X162835285Y-97445952D01*
X162882904Y-97541190D01*
X162930523Y-97588809D01*
X163025761Y-97636428D01*
X163216238Y-97636428D01*
X163311476Y-97588809D01*
X163359095Y-97541190D01*
X163406714Y-97445952D01*
%TD*%
M02*
